<?xml version="1.0" standalone="no"?>
<!DOCTYPE svg PUBLIC "-//W3C//DTD SVG 1.1//EN"
  "http://www.w3.org/Graphics/SVG/1.1/DTD/svg11.dtd">
<svg width="245.99999237060547mm" height="127.00000381469724mm" viewBox="-93.0999984741211 -60.20000076293944 245.99999237060547 127.00000381469724" xmlns="http://www.w3.org/2000/svg" version="1.1">
	<title>svgOutput</title>
	<desc>made with tinkercad</desc>
<path d="M 151.8769989013672 -57.618000030517564 L 151.8985137939453 -57.34400177001952 L 151.89999389648438 -57.32500076293944 L 151.89999389648438 -55.29600143432616 L 151.89999389648438 -53.2480010986328 L 151.89999389648438 -49.15200042724608 L 151.89999389648438 -45.05599975585937 L 151.89999389648438 -40.95999908447265 L 151.89999389648438 -36.86399841308593 L 151.89999389648438 -32.76800155639648 L 151.89999389648438 -28.67200088500976 L 151.89999389648438 -24.57600021362304 L 151.89999389648438 -20.479999542236325 L 151.89999389648438 -16.38400077819824 L 151.89999389648438 -12.28800010681152 L 151.89999389648438 -8.19200038909912 L 151.89999389648438 -4.09600019454956 L 151.89999389648438 1.1102230246251565e-16 L 151.89999389648438 4.09600019454956 L 151.89999389648438 8.19200038909912 L 151.89999389648438 12.28800010681152 L 151.89999389648438 16.38400077819824 L 151.89999389648438 20.479999542236325 L 151.89999389648438 24.57600021362304 L 151.89999389648438 28.67200088500976 L 151.89999389648438 32.76800155639648 L 151.89999389648438 36.86399841308593 L 151.89999389648438 40.95999908447265 L 151.89999389648438 45.05599975585937 L 151.89999389648438 49.15200042724608 L 151.89999389648438 53.2480010986328 L 151.89999389648438 57.34400177001952 L 151.89999389648438 61.43999862670897 L 151.89999389648438 63.48799896240233 L 151.89999389648438 63.92499923706053 L 151.8769989013672 64.21800231933592 L 151.80999755859375 64.50399780273436 L 151.80673217773438 64.51200103759764 L 151.69900512695312 64.77600097656249 L 151.552001953125 65.02034759521483 L 151.54800415039062 65.02700042724608 L 151.36000061035156 65.25099945068358 L 151.13900756835938 65.44200134277342 L 150.9888458251953 65.53600311279295 L 150.89300537109375 65.5960006713867 L 150.625 65.70800018310545 L 150.5279998779297 65.73181915283202 L 150.343994140625 65.77700042724608 L 150.05499267578125 65.8000030517578 L 149.50399780273438 65.8000030517578 L 147.45599365234375 65.8000030517578 L 131.07200622558594 65.8000030517578 L 65.53600311279297 65.8000030517578 L 11.899999618530273 65.8000030517578 L 0 65.8000030517578 L -65.53600311279297 65.8000030517578 L -68.0999984741211 65.8000030517578 L -81.91999816894531 65.8000030517578 L -90.11199951171875 65.8000030517578 L -90.25499725341797 65.8000030517578 L -90.54399871826172 65.77700042724608 L -90.82499694824219 65.70800018310545 L -91.09300231933594 65.5960006713867 L -91.1888427734375 65.53600311279295 L -91.33899688720703 65.44200134277342 L -91.55999755859375 65.25099945068358 L -91.74800109863281 65.02700042724608 L -91.89900207519531 64.77600097656249 L -92.0067367553711 64.51200103759764 L -92.01000213623047 64.50399780273436 L -92.0770034790039 64.21800231933592 L -92.0999984741211 63.92499923706053 L -92.0999984741211 63.48799896240233 L -92.0999984741211 61.43999862670897 L -92.0999984741211 59.39199829101561 L -92.0999984741211 57.34400177001952 L -92.0999984741211 55.29600143432616 L -92.0999984741211 53.2480010986328 L -92.0999984741211 51.20000076293944 L -92.0999984741211 49.15200042724608 L -92.0999984741211 47.10400009155273 L -92.0999984741211 45.05599975585937 L -92.0999984741211 43.00799942016601 L -92.0999984741211 40.95999908447265 L -92.0999984741211 38.91199874877929 L -92.0999984741211 36.86399841308593 L -92.0999984741211 34.81600189208984 L -92.0999984741211 32.76800155639648 L -92.0999984741211 30.719999313354485 L -92.0999984741211 28.67200088500976 L -92.0999984741211 26.6240005493164 L -92.0999984741211 24.57600021362304 L -92.0999984741211 22.527999877929684 L -92.0999984741211 20.479999542236325 L -92.0999984741211 18.431999206542965 L -92.0999984741211 16.38400077819824 L -92.0999984741211 14.33600044250488 L -92.0999984741211 12.28800010681152 L -92.0999984741211 10.239999771118162 L -92.0999984741211 8.19200038909912 L -92.0999984741211 6.14400005340576 L -92.0999984741211 4.09600019454956 L -92.0999984741211 2.04800009727478 L -92.0999984741211 1.1102230246251565e-16 L -92.0999984741211 -2.04800009727478 L -92.0999984741211 -4.09600019454956 L -92.0999984741211 -6.14400005340576 L -92.0999984741211 -8.19200038909912 L -92.0999984741211 -10.239999771118162 L -92.0999984741211 -12.28800010681152 L -92.0999984741211 -14.33600044250488 L -92.0999984741211 -16.38400077819824 L -92.0999984741211 -18.431999206542965 L -92.0999984741211 -20.479999542236325 L -92.0999984741211 -22.527999877929684 L -92.0999984741211 -24.57600021362304 L -92.0999984741211 -26.6240005493164 L -92.0999984741211 -28.67200088500976 L -92.0999984741211 -30.719999313354485 L -92.0999984741211 -32.76800155639648 L -92.0999984741211 -34.81600189208984 L -92.0999984741211 -36.86399841308593 L -92.0999984741211 -38.91199874877929 L -92.0999984741211 -40.95999908447265 L -92.0999984741211 -43.00799942016601 L -92.0999984741211 -45.05599975585937 L -92.0999984741211 -47.10400009155273 L -92.0999984741211 -49.15200042724608 L -92.0999984741211 -51.20000076293944 L -92.0999984741211 -53.2480010986328 L -92.0999984741211 -55.29600143432616 L -92.0999984741211 -56.319999694824205 L -92.0999984741211 -57.32500076293944 L -92.0985107421875 -57.34400177001952 L -92.0770034790039 -57.618000030517564 L -92.01000213623047 -57.90399932861327 L -91.89900207519531 -58.175998687744126 L -91.74800109863281 -58.42699813842772 L -91.55999755859375 -58.651000976562486 L -91.33899688720703 -58.841999053955064 L -91.09300231933594 -58.995998382568345 L -90.82499694824219 -59.10800170898436 L -90.54399871826172 -59.17699813842772 L -90.25499725341797 -59.20000076293944 L -90.11199951171875 -59.20000076293944 L -88.06400299072266 -59.20000076293944 L -86.01599884033203 -59.20000076293944 L -83.96800231933594 -59.20000076293944 L -81.91999816894531 -59.20000076293944 L -79.87200164794922 -59.20000076293944 L -77.8239974975586 -59.20000076293944 L -75.7760009765625 -59.20000076293944 L -73.72799682617188 -59.20000076293944 L -71.68000030517578 -59.20000076293944 L -69.63200378417969 -59.20000076293944 L -68.0999984741211 -59.20000076293944 L -67.58399963378906 -59.20000076293944 L -65.53600311279297 -59.20000076293944 L -63.487998962402344 -59.20000076293944 L -61.439998626708984 -59.20000076293944 L -59.391998291015625 -59.20000076293944 L -57.34400177001953 -59.20000076293944 L -55.29600143432617 -59.20000076293944 L -53.24800109863281 -59.20000076293944 L -51.20000076293945 -59.20000076293944 L -49.152000427246094 -59.20000076293944 L -47.104000091552734 -59.20000076293944 L -45.055999755859375 -59.20000076293944 L -43.007999420166016 -59.20000076293944 L -40.959999084472656 -59.20000076293944 L -38.9119987487793 -59.20000076293944 L -36.86399841308594 -59.20000076293944 L -34.816001892089844 -59.20000076293944 L -32.768001556396484 -59.20000076293944 L -30.719999313354492 -59.20000076293944 L -28.672000885009766 -59.20000076293944 L -26.624000549316406 -59.20000076293944 L -24.576000213623047 -59.20000076293944 L -22.527999877929688 -59.20000076293944 L -20.479999542236328 -59.20000076293944 L -18.43199920654297 -59.20000076293944 L -16.384000778198242 -59.20000076293944 L -14.336000442504883 -59.20000076293944 L -12.288000106811523 -59.20000076293944 L -10.239999771118164 -59.20000076293944 L -8.192000389099121 -59.20000076293944 L -6.144000053405762 -59.20000076293944 L -4.0960001945495605 -59.20000076293944 L -2.0480000972747803 -59.20000076293944 L 0 -59.20000076293944 L 2.0480000972747803 -59.20000076293944 L 4.0960001945495605 -59.20000076293944 L 6.144000053405762 -59.20000076293944 L 8.192000389099121 -59.20000076293944 L 10.239999771118164 -59.20000076293944 L 11.899999618530273 -59.20000076293944 L 12.288000106811523 -59.20000076293944 L 14.336000442504883 -59.20000076293944 L 16.384000778198242 -59.20000076293944 L 18.43199920654297 -59.20000076293944 L 20.479999542236328 -59.20000076293944 L 22.527999877929688 -59.20000076293944 L 24.576000213623047 -59.20000076293944 L 26.624000549316406 -59.20000076293944 L 28.672000885009766 -59.20000076293944 L 30.719999313354492 -59.20000076293944 L 32.768001556396484 -59.20000076293944 L 34.816001892089844 -59.20000076293944 L 36.86399841308594 -59.20000076293944 L 38.9119987487793 -59.20000076293944 L 40.959999084472656 -59.20000076293944 L 43.007999420166016 -59.20000076293944 L 45.055999755859375 -59.20000076293944 L 47.104000091552734 -59.20000076293944 L 49.152000427246094 -59.20000076293944 L 51.20000076293945 -59.20000076293944 L 53.24800109863281 -59.20000076293944 L 55.29600143432617 -59.20000076293944 L 57.34400177001953 -59.20000076293944 L 59.391998291015625 -59.20000076293944 L 61.439998626708984 -59.20000076293944 L 63.487998962402344 -59.20000076293944 L 65.53600311279297 -59.20000076293944 L 67.58399963378906 -59.20000076293944 L 69.63200378417969 -59.20000076293944 L 71.68000030517578 -59.20000076293944 L 73.72799682617188 -59.20000076293944 L 75.7760009765625 -59.20000076293944 L 77.8239974975586 -59.20000076293944 L 79.87200164794922 -59.20000076293944 L 81.91999816894531 -59.20000076293944 L 83.96800231933594 -59.20000076293944 L 86.01599884033203 -59.20000076293944 L 88.06400299072266 -59.20000076293944 L 90.11199951171875 -59.20000076293944 L 92.16000366210938 -59.20000076293944 L 94.20800018310547 -59.20000076293944 L 96.25599670410156 -59.20000076293944 L 98.30400085449219 -59.20000076293944 L 100.35199737548828 -59.20000076293944 L 102.4000015258789 -59.20000076293944 L 104.447998046875 -59.20000076293944 L 106.49600219726562 -59.20000076293944 L 108.54399871826172 -59.20000076293944 L 110.59200286865234 -59.20000076293944 L 112.63999938964844 -59.20000076293944 L 114.68800354003906 -59.20000076293944 L 116.73600006103516 -59.20000076293944 L 118.78399658203125 -59.20000076293944 L 120.83200073242188 -59.20000076293944 L 122.87999725341797 -59.20000076293944 L 124.9280014038086 -59.20000076293944 L 126.97599792480469 -59.20000076293944 L 129.0240020751953 -59.20000076293944 L 131.07200622558594 -59.20000076293944 L 133.1199951171875 -59.20000076293944 L 135.16799926757812 -59.20000076293944 L 137.21600341796875 -59.20000076293944 L 139.26400756835938 -59.20000076293944 L 141.31199645996094 -59.20000076293944 L 143.36000061035156 -59.20000076293944 L 145.4080047607422 -59.20000076293944 L 147.45599365234375 -59.20000076293944 L 149.50399780273438 -59.20000076293944 L 150.05499267578125 -59.20000076293944 L 150.343994140625 -59.17699813842772 L 150.5279998779297 -59.13181686401366 L 150.625 -59.10800170898436 L 150.89300537109375 -58.995998382568345 L 151.13900756835938 -58.841999053955064 L 151.36000061035156 -58.651000976562486 L 151.54800415039062 -58.42699813842772 L 151.552001953125 -58.420349121093736 L 151.69900512695312 -58.175998687744126 L 151.80999755859375 -57.90399932861327 L 151.8769989013672 -57.618000030517564 M 145.48500061035156 -49.18700027465819 L 145.46710205078125 -49.15200042724608 L 145.3070068359375 -48.83900070190428 L 145.24600219726562 -48.451999664306626 L 145.3070068359375 -48.06600189208983 L 145.48500061035156 -47.717998504638665 L 145.76100158691406 -47.44100189208984 L 146.11000061035156 -47.26300048828124 L 146.49600219726562 -47.20199966430663 L 146.8820037841797 -47.26300048828124 L 147.2310028076172 -47.44100189208984 L 147.45599365234375 -47.66600036621093 L 147.50799560546875 -47.717998504638665 L 147.68499755859375 -48.06600189208983 L 147.74600219726562 -48.451999664306626 L 147.68499755859375 -48.83900070190428 L 147.5258026123047 -49.15200042724608 L 147.50799560546875 -49.18700027465819 L 147.45599365234375 -49.23899841308592 L 147.2310028076172 -49.46400070190428 L 146.8820037841797 -49.64099884033202 L 146.49600219726562 -49.701999664306626 L 146.11000061035156 -49.64099884033202 L 145.76100158691406 -49.46400070190428 L 145.48500061035156 -49.18700027465819 M 139.98199462890625 -42.46099853515624 L 140.3679962158203 -42.39899826049804 L 140.7550048828125 -42.46099853515624 L 141.10299682617188 -42.63800048828124 L 141.3800048828125 -42.91500091552734 L 141.42730712890625 -43.00799942016601 L 141.5570068359375 -43.26300048828124 L 141.6179962158203 -43.64899826049804 L 141.5570068359375 -44.035999298095696 L 141.3800048828125 -44.3839988708496 L 141.10299682617188 -44.660999298095696 L 140.7550048828125 -44.838001251220696 L 140.3679962158203 -44.9000015258789 L 139.98199462890625 -44.838001251220696 L 139.63400268554688 -44.660999298095696 L 139.35699462890625 -44.3839988708496 L 139.17999267578125 -44.035999298095696 L 139.1179962158203 -43.64899826049804 L 139.17999267578125 -43.26300048828124 L 139.3096923828125 -43.00799942016601 L 139.35699462890625 -42.91500091552734 L 139.63400268554688 -42.63800048828124 L 139.98199462890625 -42.46099853515624 M 147.4810028076172 -17.461999893188473 L 147.45599365234375 -17.474786758422848 L 147.13299560546875 -17.639999389648434 L 146.74600219726562 -17.701000213623043 L 146.36000061035156 -17.639999389648434 L 146.01100158691406 -17.461999893188473 L 145.73500061035156 -17.186000823974606 L 145.5570068359375 -16.836999893188473 L 145.49600219726562 -16.451000213623043 L 145.506591796875 -16.38400077819824 L 145.5570068359375 -16.065000534057614 L 145.73500061035156 -15.71599960327148 L 146.01100158691406 -15.439999580383297 L 146.36000061035156 -15.262000083923336 L 146.74600219726562 -15.201000213623043 L 147.13299560546875 -15.262000083923336 L 147.45599365234375 -15.427212715148922 L 147.4810028076172 -15.439999580383297 L 147.75799560546875 -15.71599960327148 L 147.93499755859375 -16.065000534057614 L 147.98541259765625 -16.38400077819824 L 147.99600219726562 -16.451000213623043 L 147.93499755859375 -16.836999893188473 L 147.75799560546875 -17.186000823974606 L 147.4810028076172 -17.461999893188473 M 139.67999267578125 23.716999053955075 L 139.6179962158203 24.103000640869134 L 139.62136840820312 24.1240005493164 L 139.67999267578125 24.489999771118157 L 139.72373962402344 24.57600021362304 L 139.85699462890625 24.837999343872063 L 140.13400268554688 25.114999771118157 L 140.48199462890625 25.291999816894524 L 140.8679962158203 25.354000091552727 L 141.2550048828125 25.291999816894524 L 141.60299682617188 25.114999771118157 L 141.8800048828125 24.837999343872063 L 142.0132598876953 24.57600021362304 L 142.0570068359375 24.489999771118157 L 142.11468505859375 24.1240005493164 L 142.1179962158203 24.103000640869134 L 142.0570068359375 23.716999053955075 L 141.8800048828125 23.36899948120117 L 141.60299682617188 23.091999053955075 L 141.2550048828125 22.91500091552734 L 140.8679962158203 22.853000640869137 L 140.48199462890625 22.91500091552734 L 140.13400268554688 23.091999053955075 L 139.85699462890625 23.36899948120117 L 139.67999267578125 23.716999053955075 M 147.63299560546875 35.81700134277343 L 147.45599365234375 35.63999938964843 L 147.3560028076172 35.54000091552734 L 147.0070037841797 35.36299896240234 L 146.62100219726562 35.30099868774413 L 146.23500061035156 35.36299896240234 L 145.88600158691406 35.54000091552734 L 145.62100219726562 35.80596160888671 L 145.61000061035156 35.81700134277343 L 145.4320068359375 36.16500091552734 L 145.37100219726562 36.55099868774413 L 145.4203338623047 36.86399841308593 L 145.4320068359375 36.93799972534179 L 145.61000061035156 37.285999298095696 L 145.62100219726562 37.297039031982415 L 145.88600158691406 37.56299972534179 L 146.23500061035156 37.74000167846679 L 146.62100219726562 37.80099868774413 L 147.0070037841797 37.74000167846679 L 147.3560028076172 37.56299972534179 L 147.45599365234375 37.463001251220696 L 147.63299560546875 37.285999298095696 L 147.80999755859375 36.93799972534179 L 147.82167053222656 36.86399841308593 L 147.87100219726562 36.55099868774413 L 147.80999755859375 36.16500091552734 L 147.63299560546875 35.81700134277343 M 147.6060028076172 57.54100036621092 L 147.45599365234375 57.46470642089842 L 147.25799560546875 57.36399841308592 L 147.13316345214844 57.34400177001952 L 146.87100219726562 57.30199813842772 L 146.60951232910156 57.34400177001952 L 146.48500061035156 57.36399841308592 L 146.13600158691406 57.54100036621092 L 145.86000061035156 57.81800079345702 L 145.6820068359375 58.16600036621092 L 145.62100219726562 58.55199813842772 L 145.6820068359375 58.938999176025376 L 145.86000061035156 59.28699874877928 L 146.13600158691406 59.563999176025376 L 146.48500061035156 59.741001129150376 L 146.87100219726562 59.80199813842772 L 147.25799560546875 59.741001129150376 L 147.45599365234375 59.640293121337876 L 147.6060028076172 59.563999176025376 L 147.88299560546875 59.28699874877928 L 148.05999755859375 58.938999176025376 L 148.12100219726562 58.55199813842772 L 148.05999755859375 58.16600036621092 L 147.88299560546875 57.81800079345702 L 147.6060028076172 57.54100036621092 M 127.1719970703125 -50.71799850463866 L 127.18800354003906 -50.701999664306626 L 127.4489974975586 -50.44100189208983 L 127.7969970703125 -50.26399993896483 L 128.18299865722656 -50.201999664306626 L 128.57000732421875 -50.26399993896483 L 128.91799926757812 -50.44100189208983 L 129.1790008544922 -50.701999664306626 L 129.19500732421875 -50.71799850463866 L 129.3719940185547 -51.06600189208983 L 129.39317321777344 -51.20000076293944 L 129.43299865722656 -51.451999664306626 L 129.3719940185547 -51.83900070190428 L 129.19500732421875 -52.18700027465819 L 128.91799926757812 -52.46400070190428 L 128.57000732421875 -52.64099884033202 L 128.18299865722656 -52.701999664306626 L 127.7969970703125 -52.64099884033202 L 127.4489974975586 -52.46400070190428 L 127.1719970703125 -52.18700027465819 L 126.99400329589844 -51.83900070190428 L 126.93299865722656 -51.451999664306626 L 126.97282409667969 -51.20000076293944 L 126.99400329589844 -51.06600189208983 L 127.1719970703125 -50.71799850463866 M 111.73400115966797 -50.71799850463866 L 111.75 -50.701999664306626 L 112.01100158691406 -50.44100189208983 L 112.35900115966797 -50.26399993896483 L 112.63999938964844 -50.21898269653319 L 112.74600219726562 -50.201999664306626 L 113.13200378417969 -50.26399993896483 L 113.4800033569336 -50.44100189208983 L 113.74099731445312 -50.701999664306626 L 113.75700378417969 -50.71799850463866 L 113.93399810791016 -51.06600189208983 L 113.99600219726562 -51.451999664306626 L 113.93399810791016 -51.83900070190428 L 113.75700378417969 -52.18700027465819 L 113.4800033569336 -52.46400070190428 L 113.13200378417969 -52.64099884033202 L 112.74600219726562 -52.701999664306626 L 112.63999938964844 -52.68529129028319 L 112.35900115966797 -52.64099884033202 L 112.01100158691406 -52.46400070190428 L 111.73400115966797 -52.18700027465819 L 111.55699920654297 -51.83900070190428 L 111.49500274658203 -51.451999664306626 L 111.55699920654297 -51.06600189208983 L 111.73400115966797 -50.71799850463866 M 26.48200035095215 -50.76399993896483 L 26.868999481201172 -50.701999664306626 L 27.2549991607666 -50.76399993896483 L 27.60300064086914 -50.94100189208983 L 27.86199951171875 -51.20000076293944 L 27.8799991607666 -51.21799850463866 L 28.058000564575195 -51.56600189208983 L 28.118999481201172 -51.951999664306626 L 28.058000564575195 -52.33900070190428 L 27.8799991607666 -52.68700027465819 L 27.60300064086914 -52.96400070190428 L 27.2549991607666 -53.14099884033202 L 26.868999481201172 -53.20299911499022 L 26.624000549316406 -53.163749694824205 L 26.48200035095215 -53.14099884033202 L 26.134000778198242 -52.96400070190428 L 25.85700035095215 -52.68700027465819 L 25.68000030517578 -52.33900070190428 L 25.618999481201172 -51.951999664306626 L 25.68000030517578 -51.56600189208983 L 25.85700035095215 -51.21799850463866 L 25.875 -51.20000076293944 L 26.134000778198242 -50.94100189208983 L 26.48200035095215 -50.76399993896483 M 13.420000076293945 -50.76399993896483 L 13.805999755859375 -50.701999664306626 L 14.192000389099121 -50.76399993896483 L 14.541000366210938 -50.94100189208983 L 14.799064636230469 -51.20000076293944 L 14.817000389099121 -51.21799850463866 L 14.994999885559082 -51.56600189208983 L 15.055999755859375 -51.951999664306626 L 14.994999885559082 -52.33900070190428 L 14.817000389099121 -52.68700027465819 L 14.541000366210938 -52.96400070190428 L 14.336000442504883 -53.06797027587889 L 14.192000389099121 -53.14099884033202 L 13.805999755859375 -53.20299911499022 L 13.420000076293945 -53.14099884033202 L 13.071000099182129 -52.96400070190428 L 12.795000076293945 -52.68700027465819 L 12.616999626159668 -52.33900070190428 L 12.555999755859375 -51.951999664306626 L 12.616999626159668 -51.56600189208983 L 12.795000076293945 -51.21799850463866 L 12.812934875488281 -51.20000076293944 L 13.071000099182129 -50.94100189208983 L 13.420000076293945 -50.76399993896483 M 13.826000213623047 60.741001129150376 L 14.211999893188477 60.80300140380858 L 14.597999572753906 60.741001129150376 L 14.946999549865723 60.563999176025376 L 15.222999572753906 60.28699874877928 L 15.401000022888184 59.938999176025376 L 15.461999893188477 59.55199813842772 L 15.436715126037598 59.39199829101561 L 15.401000022888184 59.16600036621092 L 15.222999572753906 58.81800079345702 L 14.946999549865723 58.54100036621092 L 14.597999572753906 58.36399841308592 L 14.211999893188477 58.30199813842772 L 13.826000213623047 58.36399841308592 L 13.47700023651123 58.54100036621092 L 13.201000213623047 58.81800079345702 L 13.02299976348877 59.16600036621092 L 12.987284660339355 59.39199829101561 L 12.961999893188477 59.55199813842772 L 13.02299976348877 59.938999176025376 L 13.201000213623047 60.28699874877928 L 13.47700023651123 60.563999176025376 L 13.826000213623047 60.741001129150376 M 57.97999954223633 54.144001007080064 L 58.367000579833984 54.20500183105467 L 58.75299835205078 54.144001007080064 L 59.10100173950195 53.96599960327147 L 59.37799835205078 53.68999862670897 L 59.555999755859375 53.34099960327147 L 59.57069778442383 53.2480010986328 L 59.617000579833984 52.95500183105467 L 59.555999755859375 52.56800079345702 L 59.37799835205078 52.22000122070311 L 59.10100173950195 51.94300079345702 L 58.75299835205078 51.76599884033202 L 58.367000579833984 51.70500183105467 L 57.97999954223633 51.76599884033202 L 57.63199996948242 51.94300079345702 L 57.35499954223633 52.22000122070311 L 57.178001403808594 52.56800079345702 L 57.117000579833984 52.95500183105467 L 57.16330337524414 53.2480010986328 L 57.178001403808594 53.34099960327147 L 57.35499954223633 53.68999862670897 L 57.63199996948242 53.96599960327147 L 57.97999954223633 54.144001007080064 M -81.62300109863281 -37.610000610351555 L -81.23600006103516 -37.548999786376946 L -80.8499984741211 -37.610000610351555 L -80.50199890136719 -37.78799819946288 L -80.2249984741211 -38.06499862670898 L -80.0469970703125 -38.41299819946288 L -79.98600006103516 -38.798999786376946 L -80.00381469726562 -38.91199874877929 L -80.0469970703125 -39.1860008239746 L -80.2249984741211 -39.53400039672851 L -80.50199890136719 -39.8110008239746 L -80.8499984741211 -39.98799896240234 L -81.23600006103516 -40.048999786376946 L -81.62300109863281 -39.98799896240234 L -81.91999816894531 -39.83694076538085 L -81.97100067138672 -39.8110008239746 L -82.24800109863281 -39.53400039672851 L -82.42500305175781 -39.1860008239746 L -82.46818542480469 -38.91199874877929 L -82.48600006103516 -38.798999786376946 L -82.42500305175781 -38.41299819946288 L -82.24800109863281 -38.06499862670898 L -81.97100067138672 -37.78799819946288 L -81.91999816894531 -37.76191329956054 L -81.62300109863281 -37.610000610351555 M -87.68099975585938 -49.46400070190428 L -87.94599914550781 -49.199001312255845 L -87.95800018310547 -49.18700027465819 L -87.97579956054688 -49.15200042724608 L -88.07099914550781 -48.96483230590819 L -88.13500213623047 -48.83900070190428 L -88.19599914550781 -48.451999664306626 L -88.13500213623047 -48.06600189208983 L -88.07099914550781 -47.94017028808593 L -87.95800018310547 -47.717998504638665 L -87.94599914550781 -47.706001281738274 L -87.68099975585938 -47.44100189208984 L -87.33300018310547 -47.26300048828124 L -86.94599914550781 -47.20199966430663 L -86.55999755859375 -47.26300048828124 L -86.21099853515625 -47.44100189208984 L -85.93499755859375 -47.717998504638665 L -85.75700378417969 -48.06600189208983 L -85.69599914550781 -48.451999664306626 L -85.75700378417969 -48.83900070190428 L -85.91709899902344 -49.15200042724608 L -85.93499755859375 -49.18700027465819 L -86.21099853515625 -49.46400070190428 L -86.55999755859375 -49.64099884033202 L -86.94599914550781 -49.701999664306626 L -87.33300018310547 -49.64099884033202 L -87.68099975585938 -49.46400070190428 M -87.93540954589844 -16.38400077819824 L -87.88500213623047 -16.065000534057614 L -87.70800018310547 -15.71599960327148 L -87.43099975585938 -15.439999580383297 L -87.08300018310547 -15.262000083923336 L -86.69599914550781 -15.201000213623043 L -86.30999755859375 -15.262000083923336 L -85.96099853515625 -15.439999580383297 L -85.68499755859375 -15.71599960327148 L -85.57099914550781 -15.939517021179196 L -85.50700378417969 -16.065000534057614 L -85.45658874511719 -16.38400077819824 L -85.44599914550781 -16.451000213623043 L -85.50700378417969 -16.836999893188473 L -85.57099914550781 -16.962482452392575 L -85.68499755859375 -17.186000823974606 L -85.96099853515625 -17.461999893188473 L -86.30999755859375 -17.639999389648434 L -86.69599914550781 -17.701000213623043 L -87.08300018310547 -17.639999389648434 L -87.43099975585938 -17.461999893188473 L -87.70800018310547 -17.186000823974606 L -87.88500213623047 -16.836999893188473 L -87.94599914550781 -16.451000213623043 L -87.93540954589844 -16.38400077819824 M -81.6729965209961 26.39200019836425 L -81.28600311279297 26.454000473022454 L -80.9000015258789 26.39200019836425 L -80.552001953125 26.215000152587884 L -80.2750015258789 25.93799972534179 L -80.09700012207031 25.590000152587884 L -80.03600311279297 25.204000473022454 L -80.09700012207031 24.816999435424798 L -80.22026824951172 24.57600021362304 L -80.2750015258789 24.46899986267089 L -80.552001953125 24.191999435424798 L -80.9000015258789 24.01499938964843 L -81.28600311279297 23.95299911499023 L -81.6729965209961 24.01499938964843 L -81.91999816894531 24.14062881469726 L -82.02100372314453 24.191999435424798 L -82.2979965209961 24.46899986267089 L -82.35242462158203 24.57600021362304 L -82.4749984741211 24.816999435424798 L -82.53600311279297 25.204000473022454 L -82.4749984741211 25.590000152587884 L -82.2979965209961 25.93799972534179 L -82.02100372314453 26.215000152587884 L -81.91999816894531 26.266370773315423 L -81.6729965209961 26.39200019836425 M -87.20800018310547 37.74000167846679 L -86.82099914550781 37.80099868774413 L -86.43499755859375 37.74000167846679 L -86.08599853515625 37.56299972534179 L -85.80999755859375 37.285999298095696 L -85.63200378417969 36.93799972534179 L -85.6203384399414 36.86399841308593 L -85.57099914550781 36.55099868774413 L -85.63200378417969 36.16500091552734 L -85.80999755859375 35.81700134277343 L -86.08599853515625 35.54000091552734 L -86.43499755859375 35.36299896240234 L -86.82099914550781 35.30099868774413 L -87.20800018310547 35.36299896240234 L -87.55599975585938 35.54000091552734 L -87.83300018310547 35.81700134277343 L -88.01000213623047 36.16500091552734 L -88.07099914550781 36.55099868774413 L -88.02166748046875 36.86399841308593 L -88.01000213623047 36.93799972534179 L -87.83300018310547 37.285999298095696 L -87.55599975585938 37.56299972534179 L -87.20800018310547 37.74000167846679 M -53.51900100708008 60.741001129150376 L -53.132999420166016 60.80300140380858 L -52.74700164794922 60.741001129150376 L -52.39799880981445 60.563999176025376 L -52.12200164794922 60.28699874877928 L -51.944000244140625 59.938999176025376 L -51.882999420166016 59.55199813842772 L -51.90828323364258 59.39199829101561 L -51.944000244140625 59.16600036621092 L -52.12200164794922 58.81800079345702 L -52.39799880981445 58.54100036621092 L -52.74700164794922 58.36399841308592 L -53.132999420166016 58.30199813842772 L -53.51900100708008 58.36399841308592 L -53.86800003051758 58.54100036621092 L -54.14400100708008 58.81800079345702 L -54.321998596191406 59.16600036621092 L -54.35771560668945 59.39199829101561 L -54.382999420166016 59.55199813842772 L -54.321998596191406 59.938999176025376 L -54.14400100708008 60.28699874877928 L -53.86800003051758 60.563999176025376 L -53.51900100708008 60.741001129150376 M -50.51900100708008 13.520999908447262 L -50.105323791503906 13.977322578430172 L -36.12799835205078 1.1102230246251565e-16 L -32.928001403808594 -3.200000047683715 L -57.01936721801758 -3.200000047683715 L -56.96200180053711 -2.035000085830688 L -56.660545349121094 1.1102230246251565e-16 L -56.54499816894531 0.7799999713897704 L -55.85300064086914 3.5409998893737784 L -54.89400100708008 6.221000194549559 L -53.676998138427734 8.793999671936033 L -52.2140007019043 11.234999656677244 L -50.51900100708008 13.520999908447262 M -33.75899887084961 23.565999984741207 L -32.768001556396484 23.713153839111325 L -30.944000244140625 23.983999252319332 L -30.100000381469727 24.025562286376946 L -30.100000381469727 1.1102230246251565e-16 L -30.100000381469727 -0.37200000882148726 L -30.472000122070312 1.1102230246251565e-16 L -32.768001556396484 2.296000003814697 L -47.293087005615234 16.82108688354492 L -46.499000549316406 17.541000366210934 L -44.2130012512207 19.236000061035153 L -41.77199935913086 20.698999404907223 L -39.19900131225586 21.916000366210934 L -36.52000045776367 22.874999999999996 L -33.75899887084961 23.565999984741207 M -9.70300006866455 17.541000366210934 L -8.908042907714844 16.819957733154293 L -25.72800064086914 1.1102230246251565e-16 L -26.100000381469727 -0.37200000882148726 L -26.100000381469727 1.1102230246251565e-16 L -26.100000381469727 24.02542877197265 L -25.259000778198242 23.983999252319332 L -22.44300079345703 23.565999984741207 L -19.683000564575195 22.874999999999996 L -17.003000259399414 21.916000366210934 L -14.430000305175781 20.698999404907223 L -11.98900032043457 19.236000061035153 L -9.70300006866455 17.541000366210934 M -0.3490000069141388 3.5409998893737784 L 0 2.1465151309967037 L 0.34200000762939453 0.7799999713897704 L 0.45782238245010376 1.1102230246251565e-16 L 0.7599999904632568 -2.035000085830688 L 0.8169592022895813 -3.200000047683715 L 0 -3.200000047683715 L -23.27199935913086 -3.200000047683715 L -20.07200050354004 1.1102230246251565e-16 L -6.095839977264404 13.976160049438473 L -5.683000087738037 13.520999908447262 L -3.98799991607666 11.234999656677244 L -2.5250000953674316 8.793999671936033 L -1.3079999685287476 6.221000194549559 L -0.3490000069141388 3.5409998893737784 M -56.96200180053711 -7.719999790191649 L -56.98761749267578 -7.199999809265135 L -32.928001403808594 -7.199999809265135 L -49.79880905151367 -24.070810317993157 L -50.51900100708008 -23.275999069213864 L -52.2140007019043 -20.98999977111816 L -53.676998138427734 -18.54899978637695 L -54.89400100708008 -15.975999832153317 L -55.85300064086914 -13.295999526977536 L -56.54499816894531 -10.534999847412108 L -56.96200180053711 -7.719999790191649 M -46.499000549316406 -27.295999526977532 L -46.95490264892578 -26.882900238037102 L -32.768001556396484 -12.696000099182125 L -30.100000381469727 -10.027999877929686 L -30.100000381469727 -32.76800155639648 L -30.100000381469727 -33.78056335449218 L -30.944000244140625 -33.73899841308593 L -32.768001556396484 -33.46880340576171 L -33.75899887084961 -33.3219985961914 L -35.96939468383789 -32.76800155639648 L -36.52000045776367 -32.63000106811523 L -39.19900131225586 -31.670999526977532 L -41.77199935913086 -30.454000473022454 L -44.2130012512207 -28.99099922180175 L -46.499000549316406 -27.295999526977532 M -25.259000778198242 -33.73899841308593 L -26.100000381469727 -33.78042984008788 L -26.100000381469727 -32.76800155639648 L -26.100000381469727 -10.027999877929686 L -9.246152877807617 -26.88184738159179 L -9.70300006866455 -27.295999526977532 L -11.98900032043457 -28.99099922180175 L -14.430000305175781 -30.454000473022454 L -17.003000259399414 -31.670999526977532 L -19.683000564575195 -32.63000106811523 L -20.2334041595459 -32.76800155639648 L -22.44300079345703 -33.3219985961914 L -25.259000778198242 -33.73899841308593 M 0.34200000762939453 -10.534999847412108 L 0 -11.901515007019041 L -0.3490000069141388 -13.295999526977536 L -1.3079999685287476 -15.975999832153317 L -2.5250000953674316 -18.54899978637695 L -3.98799991607666 -20.98999977111816 L -5.683000087738037 -23.275999069213864 L -6.40243673324585 -24.069562911987298 L -23.27199935913086 -7.199999809265135 L 0 -7.199999809265135 L 0.7854328155517578 -7.199999809265135 L 0.7599999904632568 -7.719999790191649 L 0.34200000762939453 -10.534999847412108 z" fill="none" stroke="rgb(255,0,0)" stroke-width="0.001mm" />
</svg>