<?xml version="1.0" standalone="no"?>
<!DOCTYPE svg PUBLIC "-//W3C//DTD SVG 1.1//EN"
  "http://www.w3.org/Graphics/SVG/1.1/DTD/svg11.dtd">
<svg width="55mm" height="54.99999999999994mm" viewBox="143 -406.9999999999999 55 54.99999999999994" xmlns="http://www.w3.org/2000/svg" version="1.1">
	<title>svgOutput</title>
	<desc>made with tinkercad</desc>
<path d="M 196.98399353027344 -404.8819885253905 L 197 -404.67498779296864 L 197 -401.407989501953 L 197 -393.21600341796864 L 197 -360.44799804687494 L 197 -354.3250122070312 L 196.98399353027344 -354.1180114746093 L 196.93499755859375 -353.9159851074218 L 196.8560028076172 -353.7229919433593 L 196.7469940185547 -353.5459899902343 L 196.61199951171875 -353.3880004882812 L 196.60800170898438 -353.3845825195312 L 196.45399475097656 -353.2529907226562 L 196.27699279785156 -353.1440124511718 L 196.08399963378906 -353.0650024414062 L 195.8820037841797 -353.01599121093744 L 195.6750030517578 -352.99999999999994 L 189.7480010986328 -352.99999999999994 L 188.41600036621094 -352.99999999999994 L 180.2239990234375 -352.99999999999994 L 172.03199768066406 -352.99999999999994 L 163.83999633789062 -352.99999999999994 L 155.6479949951172 -352.99999999999994 L 148.7480010986328 -352.99999999999994 L 147.45599365234375 -352.99999999999994 L 145.3249969482422 -352.99999999999994 L 145.1179962158203 -353.01599121093744 L 144.91600036621094 -353.0650024414062 L 144.72300720214844 -353.1440124511718 L 144.54600524902344 -353.2529907226562 L 144.38800048828125 -353.3880004882812 L 144.2530059814453 -353.5459899902343 L 144.1439971923828 -353.7229919433593 L 144.06500244140625 -353.9159851074218 L 144.01600646972656 -354.1180114746093 L 144 -354.3250122070312 L 144 -360.44799804687494 L 144 -368.64001464843744 L 144 -376.8320007324218 L 144 -385.02398681640614 L 144 -393.21600341796864 L 144 -401.407989501953 L 144 -404.67498779296864 L 144.01600646972656 -404.8819885253905 L 144.06500244140625 -405.084014892578 L 144.1439971923828 -405.2770080566405 L 144.2530059814453 -405.4540100097655 L 144.38800048828125 -405.61199951171864 L 144.54600524902344 -405.74700927734364 L 144.72300720214844 -405.855987548828 L 144.91600036621094 -405.93499755859364 L 145.1179962158203 -405.9840087890624 L 145.3249969482422 -405.9999999999999 L 147.45599365234375 -405.9999999999999 L 148.7480010986328 -405.9999999999999 L 151.2530059814453 -405.9999999999999 L 155.6479949951172 -405.9999999999999 L 163.83999633789062 -405.9999999999999 L 172.03199768066406 -405.9999999999999 L 180.2239990234375 -405.9999999999999 L 187.0030059814453 -405.9999999999999 L 188.41600036621094 -405.9999999999999 L 195.6750030517578 -405.9999999999999 L 195.8820037841797 -405.9840087890624 L 196.08399963378906 -405.93499755859364 L 196.27699279785156 -405.855987548828 L 196.45399475097656 -405.74700927734364 L 196.60800170898438 -405.61541748046864 L 196.61199951171875 -405.61199951171864 L 196.7469940185547 -405.4540100097655 L 196.8560028076172 -405.2770080566405 L 196.93499755859375 -405.084014892578 L 196.98399353027344 -404.8819885253905 M 190.61300659179688 -398.8089904785155 L 191 -398.74798583984364 L 191.38699340820312 -398.8089904785155 L 191.73599243164062 -398.98699951171864 L 192.01300048828125 -399.26400756835926 L 192.0619659423828 -399.3599853515624 L 192.1909942626953 -399.61300659179676 L 192.2530059814453 -399.9999999999999 L 192.1909942626953 -400.386993408203 L 192.01300048828125 -400.7359924316405 L 191.73599243164062 -401.01300048828114 L 191.38699340820312 -401.19100952148426 L 191 -401.25299072265614 L 190.61300659179688 -401.19100952148426 L 190.26400756835938 -401.01300048828114 L 189.98699951171875 -400.7359924316405 L 189.8090057373047 -400.386993408203 L 189.7480010986328 -399.9999999999999 L 189.8090057373047 -399.61300659179676 L 189.9380340576172 -399.3599853515624 L 189.98699951171875 -399.26400756835926 L 190.26400756835938 -398.98699951171864 L 190.61300659179688 -398.8089904785155 M 149.61300659179688 -398.8089904785155 L 150 -398.74798583984364 L 150.38699340820312 -398.8089904785155 L 150.73599243164062 -398.98699951171864 L 151.01300048828125 -399.26400756835926 L 151.0619659423828 -399.3599853515624 L 151.1909942626953 -399.61300659179676 L 151.2530059814453 -399.9999999999999 L 151.1909942626953 -400.386993408203 L 151.01300048828125 -400.7359924316405 L 150.73599243164062 -401.01300048828114 L 150.38699340820312 -401.19100952148426 L 150 -401.25299072265614 L 149.61300659179688 -401.19100952148426 L 149.26400756835938 -401.01300048828114 L 148.98699951171875 -400.7359924316405 L 148.8090057373047 -400.386993408203 L 148.7480010986328 -399.9999999999999 L 148.8090057373047 -399.61300659179676 L 148.9380340576172 -399.3599853515624 L 148.98699951171875 -399.26400756835926 L 149.26400756835938 -398.98699951171864 L 149.61300659179688 -398.8089904785155 M 190.61300659179688 -357.80899047851557 L 191 -357.7479858398437 L 191.38699340820312 -357.80899047851557 L 191.73599243164062 -357.9869995117187 L 192.01300048828125 -358.2640075683593 L 192.08236694335938 -358.3999938964843 L 192.1909942626953 -358.6130065917968 L 192.2530059814453 -358.99999999999994 L 192.1909942626953 -359.38699340820307 L 192.01300048828125 -359.73599243164057 L 191.73599243164062 -360.0130004882812 L 191.38699340820312 -360.1910095214843 L 191 -360.2529907226562 L 190.61300659179688 -360.1910095214843 L 190.26400756835938 -360.0130004882812 L 189.98699951171875 -359.73599243164057 L 189.8090057373047 -359.38699340820307 L 189.7480010986328 -358.99999999999994 L 189.8090057373047 -358.6130065917968 L 189.91763305664062 -358.3999938964843 L 189.98699951171875 -358.2640075683593 L 190.26400756835938 -357.9869995117187 L 190.61300659179688 -357.80899047851557 M 149.61300659179688 -357.80899047851557 L 150 -357.7479858398437 L 150.38699340820312 -357.80899047851557 L 150.73599243164062 -357.9869995117187 L 151.01300048828125 -358.2640075683593 L 151.08236694335938 -358.3999938964843 L 151.1909942626953 -358.6130065917968 L 151.2530059814453 -358.99999999999994 L 151.1909942626953 -359.38699340820307 L 151.01300048828125 -359.73599243164057 L 150.73599243164062 -360.0130004882812 L 150.38699340820312 -360.1910095214843 L 150 -360.2529907226562 L 149.61300659179688 -360.1910095214843 L 149.26400756835938 -360.0130004882812 L 148.98699951171875 -359.73599243164057 L 148.8090057373047 -359.38699340820307 L 148.7480010986328 -358.99999999999994 L 148.8090057373047 -358.6130065917968 L 148.91763305664062 -358.3999938964843 L 148.98699951171875 -358.2640075683593 L 149.26400756835938 -357.9869995117187 L 149.61300659179688 -357.80899047851557 M 180.2239990234375 -396.00299072265614 L 172.03199768066406 -396.00299072265614 L 163.83999633789062 -396.00299072265614 L 155.6479949951172 -396.00299072265614 L 153.9980010986328 -396.00299072265614 L 153.9980010986328 -393.21600341796864 L 153.9980010986328 -376.8320007324218 L 153.9980010986328 -362.9979858398437 L 163.83999633789062 -362.9979858398437 L 187.0030059814453 -362.9979858398437 L 187.0030059814453 -393.21600341796864 L 187.0030059814453 -396.00299072265614 L 180.2239990234375 -396.00299072265614 z" fill="none" stroke="rgb(255,0,0)" stroke-width="0.001mm" />
</svg>