<?xml version="1.0" standalone="no"?>
<!DOCTYPE svg PUBLIC "-//W3C//DTD SVG 1.1//EN"
  "http://www.w3.org/Graphics/SVG/1.1/DTD/svg11.dtd">
<svg width="55mm" height="55mm" viewBox="63 -499.9999999999999 55 55" xmlns="http://www.w3.org/2000/svg" version="1.1">
	<title>svgOutput</title>
	<desc>made with tinkercad</desc>
<path d="M 116.93499755859375 -498.084014892578 L 117 -497.67498779296864 L 117 -495.615997314453 L 117 -491.51998901367176 L 117 -458.75201416015614 L 117 -450.55999755859364 L 117 -447.32501220703114 L 116.98027038574219 -447.1767578124999 L 116.94654846191406 -446.9645996093749 L 116.87703704833984 -446.8188476562499 L 116.82746887207031 -446.67733764648426 L 116.769775390625 -446.5939025878905 L 116.7422866821289 -446.55413818359364 L 116.64424133300781 -446.4260253906249 L 116.56228637695312 -446.355987548828 L 116.4540023803711 -446.25299072265614 L 116.42047882080078 -446.23483276367176 L 116.31238555908203 -446.17623901367176 L 116.22720336914062 -446.1237792968749 L 116.20152282714844 -446.1161193847655 L 116.07209777832031 -446.07760620117176 L 115.88200378417969 -446.0159912109374 L 115.8592300415039 -446.01425170898426 L 115.67500305175781 -445.9999999999999 L 114.68800354003906 -445.9999999999999 L 109.74800109863281 -445.9999999999999 L 98.30400085449219 -445.9999999999999 L 68.74800109863281 -445.9999999999999 L 65.53600311279297 -445.9999999999999 L 65.32499694824219 -445.9999999999999 L 65.11799621582031 -446.0159912109374 L 64.96341705322266 -446.0621643066405 L 64.7733154296875 -446.1237792968749 L 64.63117980957031 -446.20053100585926 L 64.46996307373047 -446.31796264648426 L 64.38800048828125 -446.38800048828114 L 64.28995513916016 -446.516143798828 L 64.13451385498047 -446.77023315429676 L 64.06500244140625 -446.91598510742176 L 64 -447.32501220703114 L 64 -450.55999755859364 L 64 -458.75201416015614 L 64 -491.51998901367176 L 64 -495.615997314453 L 64 -497.67498779296864 L 64.01972961425781 -497.8232421874999 L 64.05345153808594 -498.0354003906249 L 64.12296295166016 -498.1811523437499 L 64.17253112792969 -498.3226623535155 L 64.230224609375 -498.40609741210926 L 64.2577133178711 -498.44586181640614 L 64.35575866699219 -498.5739746093749 L 64.43771362304688 -498.64401245117176 L 64.5459976196289 -498.74700927734364 L 64.57930755615234 -498.76498413085926 L 64.6881332397461 -498.823760986328 L 64.7733154296875 -498.8762207031249 L 64.80001068115234 -498.88421630859364 L 64.92790222167969 -498.922393798828 L 65.11799621582031 -498.9840087890624 L 65.13980865478516 -498.98568725585926 L 65.32499694824219 -498.9999999999999 L 65.53600311279297 -498.9999999999999 L 68.74800109863281 -498.9999999999999 L 71.25299835205078 -498.9999999999999 L 98.30400085449219 -498.9999999999999 L 109.74800109863281 -498.9999999999999 L 112.25299835205078 -498.9999999999999 L 114.68800354003906 -498.9999999999999 L 115.67500305175781 -498.9999999999999 L 115.88200378417969 -498.9840087890624 L 116.03710174560547 -498.93783569335926 L 116.22720336914062 -498.8762207031249 L 116.36882019042969 -498.7994689941405 L 116.53003692626953 -498.6820373535155 L 116.61199951171875 -498.61199951171864 L 116.71004486083984 -498.48385620117176 L 116.82746887207031 -498.3226623535155 L 116.89698028564453 -498.1768798828124 L 116.93499755859375 -498.084014892578 M 110.61299896240234 -491.8089904785155 L 111 -491.74798583984364 L 111.38700103759766 -491.8089904785155 L 111.73600006103516 -491.98699951171864 L 112.01300048828125 -492.26400756835926 L 112.19100189208984 -492.61300659179676 L 112.25299835205078 -492.9999999999999 L 112.19100189208984 -493.386993408203 L 112.09868621826172 -493.5679931640624 L 112.01300048828125 -493.7359924316405 L 111.73600006103516 -494.01300048828114 L 111.38700103759766 -494.19100952148426 L 111 -494.25299072265614 L 110.61299896240234 -494.19100952148426 L 110.26399993896484 -494.01300048828114 L 109.98699951171875 -493.7359924316405 L 109.90131378173828 -493.5679931640624 L 109.80899810791016 -493.386993408203 L 109.74800109863281 -492.9999999999999 L 109.80899810791016 -492.61300659179676 L 109.98699951171875 -492.26400756835926 L 110.26399993896484 -491.98699951171864 L 110.61299896240234 -491.8089904785155 M 69.61299896240234 -491.8089904785155 L 70 -491.74798583984364 L 70.38700103759766 -491.8089904785155 L 70.73600006103516 -491.98699951171864 L 71.01300048828125 -492.26400756835926 L 71.19100189208984 -492.61300659179676 L 71.25299835205078 -492.9999999999999 L 71.19100189208984 -493.386993408203 L 71.09868621826172 -493.5679931640624 L 71.01300048828125 -493.7359924316405 L 70.73600006103516 -494.01300048828114 L 70.38700103759766 -494.19100952148426 L 70 -494.25299072265614 L 69.61299896240234 -494.19100952148426 L 69.26399993896484 -494.01300048828114 L 68.98699951171875 -493.7359924316405 L 68.90131378173828 -493.5679931640624 L 68.80899810791016 -493.386993408203 L 68.74800109863281 -492.9999999999999 L 68.80899810791016 -492.61300659179676 L 68.98699951171875 -492.26400756835926 L 69.26399993896484 -491.98699951171864 L 69.61299896240234 -491.8089904785155 M 110.61299896240234 -450.8089904785155 L 111 -450.74798583984364 L 111.38700103759766 -450.8089904785155 L 111.73600006103516 -450.98699951171864 L 112.01300048828125 -451.26400756835926 L 112.19100189208984 -451.61300659179676 L 112.25299835205078 -451.9999999999999 L 112.19100189208984 -452.386993408203 L 112.07828521728516 -452.60800170898426 L 112.01300048828125 -452.7359924316405 L 111.73600006103516 -453.01300048828114 L 111.38700103759766 -453.19100952148426 L 111 -453.25299072265614 L 110.61299896240234 -453.19100952148426 L 110.26399993896484 -453.01300048828114 L 109.98699951171875 -452.7359924316405 L 109.92171478271484 -452.60800170898426 L 109.80899810791016 -452.386993408203 L 109.74800109863281 -451.9999999999999 L 109.80899810791016 -451.61300659179676 L 109.98699951171875 -451.26400756835926 L 110.26399993896484 -450.98699951171864 L 110.61299896240234 -450.8089904785155 M 69.61299896240234 -450.8089904785155 L 70 -450.74798583984364 L 70.38700103759766 -450.8089904785155 L 70.73600006103516 -450.98699951171864 L 71.01300048828125 -451.26400756835926 L 71.19100189208984 -451.61300659179676 L 71.25299835205078 -451.9999999999999 L 71.19100189208984 -452.386993408203 L 71.07828521728516 -452.60800170898426 L 71.01300048828125 -452.7359924316405 L 70.73600006103516 -453.01300048828114 L 70.38700103759766 -453.19100952148426 L 70 -453.25299072265614 L 69.61299896240234 -453.19100952148426 L 69.26399993896484 -453.01300048828114 L 68.98699951171875 -452.7359924316405 L 68.92171478271484 -452.60800170898426 L 68.80899810791016 -452.386993408203 L 68.74800109863281 -451.9999999999999 L 68.80899810791016 -451.61300659179676 L 68.98699951171875 -451.26400756835926 L 69.26399993896484 -450.98699951171864 L 69.61299896240234 -450.8089904785155 z" fill="none" stroke="rgb(255,0,0)" stroke-width="0.001mm" />
</svg>