<?xml version="1.0" standalone="no"?>
<!DOCTYPE svg PUBLIC "-//W3C//DTD SVG 1.1//EN"
  "http://www.w3.org/Graphics/SVG/1.1/DTD/svg11.dtd">
<svg width="211mm" height="118.99999999999996mm" viewBox="199.25 -201.49999999999994 211 118.99999999999996" xmlns="http://www.w3.org/2000/svg" version="1.1">
	<title>svgOutput</title>
	<desc>made with tinkercad</desc>
<path d="M 408.6679992675781 -83.50700378417967 L 408.55999755859375 -83.49999999999999 L 407.552001953125 -83.49999999999999 L 405.5039978027344 -83.49999999999999 L 403.45599365234375 -83.49999999999999 L 401.4079895019531 -83.49999999999999 L 399.3599853515625 -83.49999999999999 L 397.31201171875 -83.49999999999999 L 395.2640075683594 -83.49999999999999 L 393.21600341796875 -83.49999999999999 L 391.1679992675781 -83.49999999999999 L 389.1199951171875 -83.49999999999999 L 387.0719909667969 -83.49999999999999 L 385.02398681640625 -83.49999999999999 L 382.97601318359375 -83.49999999999999 L 380.9280090332031 -83.49999999999999 L 378.8800048828125 -83.49999999999999 L 377 -83.49999999999999 L 376.8320007324219 -83.49999999999999 L 376.25 -83.49999999999999 L 376.2099914550781 -83.49999999999999 L 376.2099914550781 -83.96800231933592 L 376.2099914550781 -86.01599884033202 L 376.2099914550781 -90.11199951171874 L 376.2099914550781 -98.30400085449216 L 376.2099914550781 -104.78120422363278 L 364.7045593261719 -113.75299835205075 L 360.447998046875 -113.75299835205075 L 327.67999267578125 -113.75299835205075 L 306.52581787109375 -113.75299835205075 L 306.50299072265625 -113.72850799560544 L 306.50299072265625 -113.75299835205075 L 293.25 -99.82047271728513 L 291.8074951171875 -98.30400085449216 L 286.7200012207031 -92.95565795898436 L 284.0150451660156 -90.11199951171874 L 282.25 -88.25646972656249 L 281.25 -87.20519256591795 L 280.1188049316406 -86.01599884033202 L 278.52801513671875 -84.34362792968749 L 277.72552490234375 -83.49999999999999 L 276.4800109863281 -83.49999999999999 L 274.4320068359375 -83.49999999999999 L 272.3840026855469 -83.49999999999999 L 270.33599853515625 -83.49999999999999 L 268.2879943847656 -83.49999999999999 L 266.239990234375 -83.49999999999999 L 264.1919860839844 -83.49999999999999 L 262.1440124511719 -83.49999999999999 L 260.09600830078125 -83.49999999999999 L 258.1136169433594 -83.49999999999999 L 258.0480041503906 -83.49999999999999 L 256 -83.49999999999999 L 253.95199584960938 -83.49999999999999 L 251.9040069580078 -83.49999999999999 L 249.8560028076172 -83.49999999999999 L 247.80799865722656 -83.49999999999999 L 245.75999450683594 -83.49999999999999 L 243.71200561523438 -83.49999999999999 L 241.66400146484375 -83.49999999999999 L 239.61599731445312 -83.49999999999999 L 237.5679931640625 -83.49999999999999 L 235.52000427246094 -83.49999999999999 L 233.4720001220703 -83.49999999999999 L 231.4239959716797 -83.49999999999999 L 229.37600708007812 -83.49999999999999 L 227.3280029296875 -83.49999999999999 L 225.27999877929688 -83.49999999999999 L 223.23199462890625 -83.49999999999999 L 221.1840057373047 -83.49999999999999 L 219.13600158691406 -83.49999999999999 L 217.08799743652344 -83.49999999999999 L 215.0399932861328 -83.49999999999999 L 212.99200439453125 -83.49999999999999 L 210.94400024414062 -83.49999999999999 L 208.89599609375 -83.49999999999999 L 206.84800720214844 -83.49999999999999 L 204.8730010986328 -83.49999999999999 L 204.8000030517578 -83.49999999999999 L 203.7760009765625 -83.49999999999999 L 203.19000244140625 -83.49999999999999 L 202.7519989013672 -83.5019073486328 L 202.72999572753906 -83.50199890136717 L 202.28199768066406 -83.50800323486327 L 201.85499572753906 -83.5179977416992 L 201.72799682617188 -83.52220153808592 L 201.46200561523438 -83.53099822998045 L 201.11099243164062 -83.54699707031249 L 200.81199645996094 -83.56600189208983 L 200.70399475097656 -83.57582092285155 L 200.57000732421875 -83.58799743652342 L 200.3939971923828 -83.61100006103514 L 200.28599548339844 -83.63600158691405 L 200.25 -83.66100311279295 L 200.25 -83.96800231933592 L 200.25 -86.01599884033202 L 200.25 -90.11199951171874 L 200.25 -92.16000366210936 L 200.25 -93.18399810791014 L 200.25 -94.08899688720702 L 200.28599548339844 -94.11399841308592 L 200.3939971923828 -94.13899993896483 L 200.57000732421875 -94.16200256347655 L 200.70399475097656 -94.17417907714842 L 200.81199645996094 -94.18399810791014 L 201.11099243164062 -94.20300292968749 L 201.22068786621094 -94.20800018310545 L 201.46200561523438 -94.21900177001952 L 201.72799682617188 -94.22779846191405 L 201.85499572753906 -94.23200225830077 L 202.28199768066406 -94.2419967651367 L 202.72999572753906 -94.2480010986328 L 202.7519989013672 -94.24809265136717 L 203.19000244140625 -94.24999999999999 L 204.8000030517578 -94.24999999999999 L 208.89599609375 -94.24999999999999 L 212.99200439453125 -94.24999999999999 L 217.08799743652344 -94.24999999999999 L 221.1840057373047 -94.24999999999999 L 225.27999877929688 -94.24999999999999 L 229.37600708007812 -94.24999999999999 L 233.4720001220703 -94.24999999999999 L 237.5679931640625 -94.24999999999999 L 241.66400146484375 -94.24999999999999 L 245.75999450683594 -94.24999999999999 L 249.8560028076172 -94.24999999999999 L 253.95199584960938 -94.24999999999999 L 258.0480041503906 -94.24999999999999 L 262.1440124511719 -94.24999999999999 L 266.239990234375 -94.24999999999999 L 268.1265869140625 -94.24999999999999 L 281.25 -108.33939361572263 L 281.25 -108.54399871826169 L 281.25 -110.59200286865232 L 281.25 -112.63999938964841 L 281.25 -114.68800354003903 L 281.25 -116.73600006103513 L 281.25 -118.78399658203122 L 281.25 -120.83200073242185 L 281.25 -122.87999725341794 L 281.25 -124.92800140380857 L 281.25 -126.97599792480466 L 281.25 -129.02400207519528 L 281.25 -131.0720062255859 L 281.25 -133.11999511718747 L 281.25 -135.1679992675781 L 281.25 -137.21600341796872 L 281.25 -139.26400756835935 L 281.25 -141.3119964599609 L 281.25 -143.36000061035153 L 281.25 -145.40800476074216 L 281.25 -147.45599365234372 L 281.25 -149.50399780273435 L 281.25 -151.55200195312497 L 281.25 -153.6000061035156 L 281.25 -155.64799499511716 L 281.25 -157.69599914550778 L 281.25 -159.7440032958984 L 281.25 -161.79200744628903 L 281.25 -163.8399963378906 L 281.25 -165.88800048828122 L 281.25 -167.93600463867185 L 281.25 -169.9839935302734 L 281.25 -172.03199768066403 L 281.25 -174.08000183105466 L 281.25 -176.12800598144528 L 281.25 -178.17599487304685 L 281.25 -180.22399902343747 L 281.25 -182.2720031738281 L 281.25 -184.32000732421872 L 281.25 -186.36799621582028 L 281.25 -188.4160003662109 L 281.25 -190.46400451660153 L 281.25 -192.51199340820307 L 281.25 -194.5599975585937 L 281.25 -196.60800170898432 L 281.25 -198.65600585937494 L 281.25 -198.74499511718744 L 281.26800537109375 -199.02000427246088 L 281.32000732421875 -199.2870025634765 L 281.4070129394531 -199.542007446289 L 281.52398681640625 -199.7769927978515 L 281.6709899902344 -199.98599243164057 L 281.8420104980469 -200.16499328613276 L 282.03399658203125 -200.30900573730463 L 282.24200439453125 -200.4140014648437 L 282.25 -200.4163208007812 L 282.4620056152344 -200.47799682617182 L 282.6239929199219 -200.493911743164 L 282.6860046386719 -200.49999999999994 L 283.64801025390625 -200.49999999999994 L 284.6719970703125 -200.49999999999994 L 284.8909912109375 -200.49999999999994 L 286.7200012207031 -200.49999999999994 L 287.39599609375 -200.49999999999994 L 288.76800537109375 -200.49999999999994 L 290.8160095214844 -200.49999999999994 L 292.864013671875 -200.49999999999994 L 293.0169982910156 -200.49999999999994 L 293.4389953613281 -200.49999999999994 L 294.9119873046875 -200.49999999999994 L 296.9599914550781 -200.49999999999994 L 299.00799560546875 -200.49999999999994 L 301.0559997558594 -200.49999999999994 L 303.10400390625 -200.49999999999994 L 305.1520080566406 -200.49999999999994 L 307.20001220703125 -200.49999999999994 L 308.51824951171875 -200.49999999999994 L 309.24798583984375 -200.49999999999994 L 311.2959899902344 -200.49999999999994 L 313.343994140625 -200.49999999999994 L 315.3919982910156 -200.49999999999994 L 317.44000244140625 -200.49999999999994 L 319.4880065917969 -200.49999999999994 L 321.5360107421875 -200.49999999999994 L 323.5840148925781 -200.49999999999994 L 325.6319885253906 -200.49999999999994 L 327.67999267578125 -200.49999999999994 L 329.7279968261719 -200.49999999999994 L 331.7760009765625 -200.49999999999994 L 333.8240051269531 -200.49999999999994 L 335.87200927734375 -200.49999999999994 L 337.9200134277344 -200.49999999999994 L 339.9679870605469 -200.49999999999994 L 341.88568115234375 -200.49999999999994 L 342.0159912109375 -200.49999999999994 L 344.0639953613281 -200.49999999999994 L 346.11199951171875 -200.49999999999994 L 348.1600036621094 -200.49999999999994 L 350.2080078125 -200.49999999999994 L 352.2560119628906 -200.49999999999994 L 354.3039855957031 -200.49999999999994 L 356.35198974609375 -200.49999999999994 L 358.3999938964844 -200.49999999999994 L 360.447998046875 -200.49999999999994 L 362.4960021972656 -200.49999999999994 L 364.54400634765625 -200.49999999999994 L 364.6719970703125 -200.49999999999994 L 366.5920104980469 -200.49999999999994 L 368.6400146484375 -200.49999999999994 L 370.68798828125 -200.49999999999994 L 370.7040100097656 -200.49999999999994 L 372.7359924316406 -200.49999999999994 L 373.2090148925781 -200.49999999999994 L 374.78399658203125 -200.49999999999994 L 375.5639953613281 -200.49999999999994 L 375.7879943847656 -200.47799682617182 L 375.8080139160156 -200.472183227539 L 376.00799560546875 -200.4140014648437 L 376.21600341796875 -200.30900573730463 L 376.4079895019531 -200.16499328613276 L 376.5790100097656 -199.98599243164057 L 376.72601318359375 -199.7769927978515 L 376.8320007324219 -199.56408691406244 L 376.8429870605469 -199.542007446289 L 376.92999267578125 -199.2870025634765 L 376.98199462890625 -199.02000427246088 L 377 -198.74499511718744 L 377 -198.65600585937494 L 377 -196.60800170898432 L 377 -180.22399902343747 L 377 -163.8399963378906 L 377 -147.45599365234372 L 377 -136.70936584472653 L 390.9123840332031 -123.74999999999997 L 391.1679992675781 -123.74999999999997 L 393.21600341796875 -123.74999999999997 L 394.91180419921875 -123.74999999999997 L 395.2640075683594 -123.42194366455075 L 395.8458251953125 -122.87999725341794 L 396.2054748535156 -122.54499816894528 L 400.5502624511719 -118.49800109863278 L 401.4079895019531 -117.69904327392575 L 404.6405944824219 -114.68800354003903 L 405.5039978027344 -113.88378143310544 L 406.83929443359375 -112.63999938964841 L 407.06500244140625 -112.42977142333982 L 407.552001953125 -111.97614288330075 L 409.0379943847656 -110.59200286865232 L 409.25 -110.39452362060544 L 409.25 -108.54399871826169 L 409.25 -106.4960021972656 L 409.25 -104.44799804687497 L 409.25 -102.40000152587888 L 409.25 -100.35199737548825 L 409.25 -98.30400085449216 L 409.25 -96.25599670410153 L 409.25 -94.20800018310545 L 409.25 -92.16000366210936 L 409.25 -90.11199951171874 L 409.25 -88.06400299072264 L 409.25 -86.01599884033202 L 409.25 -84.9919967651367 L 409.25 -84.10399627685545 L 409.24200439453125 -84.00900268554686 L 409.23040771484375 -83.96800231933592 L 409.21600341796875 -83.91699981689452 L 409.17498779296875 -83.83000183105467 L 409.1180114746094 -83.74900054931639 L 409.0480041503906 -83.67700195312499 L 408.96600341796875 -83.61499786376952 L 408.87298583984375 -83.56600189208983 L 408.77301025390625 -83.52999877929686 L 408.6679992675781 -83.50700378417967 M 284.3089904785156 -120.13700103759763 L 284.24798583984375 -119.74999999999997 L 284.3089904785156 -119.36299896240232 L 284.48699951171875 -119.01399993896482 L 284.6719970703125 -118.82900238037107 L 284.7170104980469 -118.78399658203122 L 284.7640075683594 -118.73699951171872 L 285.1130065917969 -118.55899810791013 L 285.5 -118.49800109863278 L 285.8869934082031 -118.55899810791013 L 286.2359924316406 -118.73699951171872 L 286.2829895019531 -118.78399658203122 L 286.51300048828125 -119.01399993896482 L 286.6910095214844 -119.36299896240232 L 286.7200012207031 -119.54401397705075 L 286.75299072265625 -119.74999999999997 L 286.7200012207031 -119.95598602294919 L 286.6910095214844 -120.13700103759763 L 286.51300048828125 -120.48600006103513 L 286.2359924316406 -120.76300048828122 L 285.8869934082031 -120.94100189208982 L 285.5 -121.00299835205075 L 285.1130065917969 -120.94100189208982 L 284.7640075683594 -120.76300048828122 L 284.6719970703125 -120.67099761962888 L 284.48699951171875 -120.48600006103513 L 284.3089904785156 -120.13700103759763 M 394.17498779296875 -118.55899810791013 L 394.56298828125 -118.49800109863278 L 394.95001220703125 -118.55899810791013 L 395.29901123046875 -118.73699951171872 L 395.34600830078125 -118.78399658203122 L 395.57598876953125 -119.01399993896482 L 395.7539978027344 -119.36299896240232 L 395.81500244140625 -119.74999999999997 L 395.7539978027344 -120.13700103759763 L 395.57598876953125 -120.48600006103513 L 395.29901123046875 -120.76300048828122 L 395.2640075683594 -120.78085327148435 L 394.95001220703125 -120.94100189208982 L 394.56298828125 -121.00299835205075 L 394.17498779296875 -120.94100189208982 L 393.82598876953125 -120.76300048828122 L 393.54901123046875 -120.48600006103513 L 393.3710021972656 -120.13700103759763 L 393.30999755859375 -119.74999999999997 L 393.3710021972656 -119.36299896240232 L 393.54901123046875 -119.01399993896482 L 393.77899169921875 -118.78399658203122 L 393.82598876953125 -118.73699951171872 L 394.17498779296875 -118.55899810791013 M 405.5039978027344 -110.9536209106445 L 405.42498779296875 -110.94100189208982 L 405.07598876953125 -110.76300048828122 L 404.9049987792969 -110.59200286865232 L 404.79901123046875 -110.48600006103513 L 404.6210021972656 -110.13700103759763 L 404.55999755859375 -109.74999999999997 L 404.6210021972656 -109.36299896240232 L 404.79901123046875 -109.01399993896482 L 405.07598876953125 -108.73699951171872 L 405.42498779296875 -108.55899810791013 L 405.5039978027344 -108.54657745361325 L 405.5204162597656 -108.54399871826169 L 405.81298828125 -108.49800109863278 L 406.1048278808594 -108.54399871826169 L 406.20001220703125 -108.55899810791013 L 406.54901123046875 -108.73699951171872 L 406.82598876953125 -109.01399993896482 L 407.0039978027344 -109.36299896240232 L 407.06500244140625 -109.74999999999997 L 407.0039978027344 -110.13700103759763 L 406.82598876953125 -110.48600006103513 L 406.7200012207031 -110.59200286865232 L 406.54901123046875 -110.76300048828122 L 406.20001220703125 -110.94100189208982 L 405.81298828125 -111.00299835205075 L 405.5039978027344 -110.9536209106445 M 405.5039978027344 -88.85378265380858 L 405.32598876953125 -88.76300048828124 L 405.04901123046875 -88.48600006103514 L 404.8710021972656 -88.13700103759764 L 404.8594970703125 -88.06400299072264 L 404.80999755859375 -87.74999999999999 L 404.8710021972656 -87.36299896240233 L 405.04901123046875 -87.01399993896483 L 405.32598876953125 -86.73699951171874 L 405.5039978027344 -86.64621734619139 L 405.67498779296875 -86.55899810791014 L 406.06298828125 -86.4980010986328 L 406.45001220703125 -86.55899810791014 L 406.79901123046875 -86.73699951171874 L 407.07598876953125 -87.01399993896483 L 407.2539978027344 -87.36299896240233 L 407.31500244140625 -87.74999999999999 L 407.2655029296875 -88.06400299072264 L 407.2539978027344 -88.13700103759764 L 407.07598876953125 -88.48600006103514 L 406.79901123046875 -88.76300048828124 L 406.45001220703125 -88.94100189208983 L 406.06298828125 -89.00299835205077 L 405.67498779296875 -88.94100189208983 L 405.5039978027344 -88.85378265380858 M 380.8089904785156 -110.13700103759763 L 380.74798583984375 -109.74999999999997 L 380.8089904785156 -109.36299896240232 L 380.9280090332031 -109.12967681884763 L 380.98699951171875 -109.01399993896482 L 381.2640075683594 -108.73699951171872 L 381.6130065917969 -108.55899810791013 L 382 -108.49800109863278 L 382.3869934082031 -108.55899810791013 L 382.7359924316406 -108.73699951171872 L 383.01300048828125 -109.01399993896482 L 383.1910095214844 -109.36299896240232 L 383.25299072265625 -109.74999999999997 L 383.1910095214844 -110.13700103759763 L 383.01300048828125 -110.48600006103513 L 382.9070129394531 -110.59200286865232 L 382.7359924316406 -110.76300048828122 L 382.3869934082031 -110.94100189208982 L 382 -111.00299835205075 L 381.6130065917969 -110.94100189208982 L 381.2640075683594 -110.76300048828122 L 381.0929870605469 -110.59200286865232 L 380.98699951171875 -110.48600006103513 L 380.9280090332031 -110.37032318115232 L 380.8089904785156 -110.13700103759763 M 381.67498779296875 -118.55899810791013 L 382.06298828125 -118.49800109863278 L 382.45001220703125 -118.55899810791013 L 382.79901123046875 -118.73699951171872 L 382.84600830078125 -118.78399658203122 L 383.07598876953125 -119.01399993896482 L 383.25299072265625 -119.36103820800778 L 383.2539978027344 -119.36299896240232 L 383.31500244140625 -119.74999999999997 L 383.2539978027344 -120.13700103759763 L 383.25299072265625 -120.13896179199216 L 383.07598876953125 -120.48600006103513 L 382.79901123046875 -120.76300048828122 L 382.45001220703125 -120.94100189208982 L 382.06298828125 -121.00299835205075 L 381.67498779296875 -120.94100189208982 L 381.32598876953125 -120.76300048828122 L 381.04901123046875 -120.48600006103513 L 380.9280090332031 -120.24875640869138 L 380.8710021972656 -120.13700103759763 L 380.80999755859375 -119.74999999999997 L 380.8710021972656 -119.36299896240232 L 380.9280090332031 -119.25124359130857 L 381.04901123046875 -119.01399993896482 L 381.27899169921875 -118.78399658203122 L 381.32598876953125 -118.73699951171872 L 381.67498779296875 -118.55899810791013 M 381.6130065917969 -86.55899810791014 L 382 -86.4980010986328 L 382.3869934082031 -86.55899810791014 L 382.7359924316406 -86.73699951171874 L 383.01300048828125 -87.01399993896483 L 383.1910095214844 -87.36299896240233 L 383.25299072265625 -87.74999999999999 L 383.20269775390625 -88.06400299072264 L 383.1910095214844 -88.13700103759764 L 383.01300048828125 -88.48600006103514 L 382.7359924316406 -88.76300048828124 L 382.3869934082031 -88.94100189208983 L 382 -89.00299835205077 L 381.6130065917969 -88.94100189208983 L 381.2640075683594 -88.76300048828124 L 380.98699951171875 -88.48600006103514 L 380.9280090332031 -88.37032318115233 L 380.8089904785156 -88.13700103759764 L 380.7974853515625 -88.06400299072264 L 380.74798583984375 -87.74999999999999 L 380.8089904785156 -87.36299896240233 L 380.9280090332031 -87.12967681884764 L 380.98699951171875 -87.01399993896483 L 381.2640075683594 -86.73699951171874 L 381.6130065917969 -86.55899810791014 M 372.6130065917969 -118.68399810791013 L 373 -118.62300109863278 L 373.3869934082031 -118.68399810791013 L 373.58306884765625 -118.78399658203122 L 373.7359924316406 -118.86199951171872 L 374.01300048828125 -119.13899993896482 L 374.1910095214844 -119.48799896240232 L 374.25299072265625 -119.87499999999997 L 374.1910095214844 -120.26200103759763 L 374.01300048828125 -120.61100006103513 L 373.7359924316406 -120.88800048828122 L 373.3869934082031 -121.06600189208982 L 373 -121.12799835205075 L 372.7359924316406 -121.08570861816403 L 372.6130065917969 -121.06600189208982 L 372.2640075683594 -120.88800048828122 L 371.98699951171875 -120.61100006103513 L 371.8089904785156 -120.26200103759763 L 371.74798583984375 -119.87499999999997 L 371.8089904785156 -119.48799896240232 L 371.98699951171875 -119.13899993896482 L 372.2640075683594 -118.86199951171872 L 372.41693115234375 -118.78399658203122 L 372.6130065917969 -118.68399810791013 M 373.1470031738281 -198.13699340820307 L 372.9700012207031 -198.48599243164057 L 372.79937744140625 -198.65600585937494 L 372.7359924316406 -198.71916198730463 L 372.6919860839844 -198.7630004882812 L 372.3429870605469 -198.94099426269526 L 371.95599365234375 -199.00300598144526 L 371.5690002441406 -198.94099426269526 L 371.2200012207031 -198.7630004882812 L 371.1130065917969 -198.65600585937494 L 370.9429931640625 -198.48599243164057 L 370.7650146484375 -198.13699340820307 L 370.7040100097656 -197.74999999999994 L 370.7650146484375 -197.36300659179682 L 370.9429931640625 -197.01400756835932 L 371.2200012207031 -196.7369995117187 L 371.4729309082031 -196.60800170898432 L 371.5690002441406 -196.55900573730463 L 371.95599365234375 -196.49800109863276 L 372.3429870605469 -196.55900573730463 L 372.4390869140625 -196.60800170898432 L 372.6919860839844 -196.7369995117187 L 372.7359924316406 -196.78083801269526 L 372.9700012207031 -197.01400756835932 L 373.1470031738281 -197.36300659179682 L 373.2090148925781 -197.74999999999994 L 373.1470031738281 -198.13699340820307 M 373.3869934082031 -171.93400573730466 L 373.5791320800781 -172.03199768066403 L 373.7359924316406 -172.11199951171872 L 374.01300048828125 -172.38900756835935 L 374.1910095214844 -172.73800659179685 L 374.25299072265625 -173.12499999999997 L 374.1910095214844 -173.5119934082031 L 374.01300048828125 -173.8609924316406 L 373.7359924316406 -174.13800048828122 L 373.3869934082031 -174.31599426269528 L 373 -174.37800598144528 L 372.7359924316406 -174.33570861816403 L 372.6130065917969 -174.31599426269528 L 372.2640075683594 -174.13800048828122 L 371.98699951171875 -173.8609924316406 L 371.8089904785156 -173.5119934082031 L 371.74798583984375 -173.12499999999997 L 371.8089904785156 -172.73800659179685 L 371.98699951171875 -172.38900756835935 L 372.2640075683594 -172.11199951171872 L 372.4208679199219 -172.03199768066403 L 372.6130065917969 -171.93400573730466 L 373 -171.87300109863278 L 373.3869934082031 -171.93400573730466 M 360.447998046875 -180.57263183593747 L 350.03350830078125 -191.75300598144528 L 327.67999267578125 -191.75300598144528 L 317.9084777832031 -191.75300598144528 L 308.0774841308594 -191.75300598144528 L 294.9119873046875 -177.61932373046872 L 293.82470703125 -176.45207214355466 L 293.82470703125 -172.03199768066403 L 293.82470703125 -163.8399963378906 L 293.82470703125 -155.64799499511716 L 293.82470703125 -147.45599365234372 L 293.82470703125 -139.26400756835935 L 293.82470703125 -138.54585266113278 L 294.9119873046875 -137.37850952148435 L 300.7861328125 -131.0720062255859 L 307.14227294921875 -124.24800109863278 L 327.67999267578125 -124.24800109863278 L 350.1247253417969 -124.24800109863278 L 356.4808654785156 -131.0720062255859 L 360.447998046875 -135.33114624023435 L 364.2163391113281 -139.37687683105466 L 364.2163391113281 -147.45599365234372 L 364.2163391113281 -148.61730957031247 L 364.2163391113281 -163.8399963378906 L 364.2163391113281 -176.52716064453122 L 360.7727355957031 -180.22399902343747 L 360.447998046875 -180.57263183593747 M 286.7200012207031 -199.34460449218744 L 286.531005859375 -199.44099426269526 L 286.1440124511719 -199.50300598144526 L 285.7569885253906 -199.44099426269526 L 285.4079895019531 -199.2630004882812 L 285.1300048828125 -198.98599243164057 L 284.962646484375 -198.65600585937494 L 284.9530029296875 -198.63699340820307 L 284.8909912109375 -198.24999999999994 L 284.9530029296875 -197.86300659179682 L 285.1300048828125 -197.51400756835932 L 285.4079895019531 -197.2369995117187 L 285.7569885253906 -197.05900573730463 L 286.1440124511719 -196.99800109863276 L 286.531005859375 -197.05900573730463 L 286.7200012207031 -197.15539550781244 L 286.8800048828125 -197.2369995117187 L 287.1570129394531 -197.51400756835932 L 287.3349914550781 -197.86300659179682 L 287.39599609375 -198.24999999999994 L 287.3349914550781 -198.63699340820307 L 287.3253173828125 -198.65600585937494 L 287.1570129394531 -198.98599243164057 L 286.8800048828125 -199.2630004882812 L 286.7200012207031 -199.34460449218744 M 284.3089904785156 -173.3869934082031 L 284.24798583984375 -172.99999999999997 L 284.3089904785156 -172.61300659179685 L 284.48699951171875 -172.26400756835935 L 284.6719970703125 -172.07899475097653 L 284.718994140625 -172.03199768066403 L 284.7640075683594 -171.98699951171872 L 285.1130065917969 -171.80900573730466 L 285.5 -171.74800109863278 L 285.8869934082031 -171.80900573730466 L 286.2359924316406 -171.98699951171872 L 286.281005859375 -172.03199768066403 L 286.51300048828125 -172.26400756835935 L 286.6910095214844 -172.61300659179685 L 286.7200012207031 -172.79402160644528 L 286.75299072265625 -172.99999999999997 L 286.7200012207031 -173.20597839355466 L 286.6910095214844 -173.3869934082031 L 286.51300048828125 -173.7359924316406 L 286.2359924316406 -174.01300048828122 L 285.8869934082031 -174.19099426269528 L 285.5 -174.25300598144528 L 285.1130065917969 -174.19099426269528 L 284.7640075683594 -174.01300048828122 L 284.6719970703125 -173.9210052490234 L 284.48699951171875 -173.7359924316406 L 284.3089904785156 -173.3869934082031 M 204.9340057373047 -86.36299896240233 L 205.11097717285156 -86.01599884033202 L 205.11199951171875 -86.01399993896483 L 205.38900756835938 -85.73699951171874 L 205.73800659179688 -85.55899810791014 L 206.125 -85.4980010986328 L 206.51199340820312 -85.55899810791014 L 206.84800720214844 -85.73036956787108 L 206.86099243164062 -85.73699951171874 L 207.13800048828125 -86.01399993896483 L 207.13902282714844 -86.01599884033202 L 207.3159942626953 -86.36299896240233 L 207.3780059814453 -86.74999999999999 L 207.3159942626953 -87.13700103759764 L 207.13800048828125 -87.48600006103514 L 206.86099243164062 -87.76300048828124 L 206.51199340820312 -87.94100189208983 L 206.125 -88.00299835205077 L 205.73800659179688 -87.94100189208983 L 205.38900756835938 -87.76300048828124 L 205.11199951171875 -87.48600006103514 L 204.9340057373047 -87.13700103759764 L 204.8730010986328 -86.74999999999999 L 204.9340057373047 -86.36299896240233 M 274.4320068359375 -87.69200134277342 L 274.3609924316406 -87.76300048828124 L 274.0119934082031 -87.94100189208983 L 273.625 -88.00299835205077 L 273.2380065917969 -87.94100189208983 L 272.8890075683594 -87.76300048828124 L 272.61199951171875 -87.48600006103514 L 272.4339904785156 -87.13700103759764 L 272.37298583984375 -86.74999999999999 L 272.4339904785156 -86.36299896240233 L 272.6109924316406 -86.01599884033202 L 272.61199951171875 -86.01399993896483 L 272.8890075683594 -85.73699951171874 L 273.2380065917969 -85.55899810791014 L 273.625 -85.4980010986328 L 274.0119934082031 -85.55899810791014 L 274.3609924316406 -85.73699951171874 L 274.4320068359375 -85.80799865722655 L 274.63800048828125 -86.01399993896483 L 274.6390075683594 -86.01599884033202 L 274.8160095214844 -86.36299896240233 L 274.87799072265625 -86.74999999999999 L 274.8160095214844 -87.13700103759764 L 274.63800048828125 -87.48600006103514 L 274.4320068359375 -87.69200134277342 M 401.4079895019531 -99.00299835205075 L 393.21600341796875 -99.00299835205075 L 384.7699890136719 -99.00299835205075 L 384.7699890136719 -98.30400085449216 L 384.7699890136719 -91.7480010986328 L 385.02398681640625 -91.7480010986328 L 393.21600341796875 -91.7480010986328 L 401.4079895019531 -91.7480010986328 L 402.00299072265625 -91.7480010986328 L 402.00299072265625 -94.20800018310545 L 402.00299072265625 -98.30400085449216 L 402.00299072265625 -99.00299835205075 L 401.4079895019531 -99.00299835205075 z" fill="none" stroke="rgb(255,0,0)" stroke-width="0.001mm" />
</svg>