%TF.GenerationSoftware,KiCad,Pcbnew,(6.0.5)*%
%TF.CreationDate,2022-10-23T19:39:55-05:00*%
%TF.ProjectId,floppy-console,666c6f70-7079-42d6-936f-6e736f6c652e,rev?*%
%TF.SameCoordinates,Original*%
%TF.FileFunction,Copper,L1,Top*%
%TF.FilePolarity,Positive*%
%FSLAX46Y46*%
G04 Gerber Fmt 4.6, Leading zero omitted, Abs format (unit mm)*
G04 Created by KiCad (PCBNEW (6.0.5)) date 2022-10-23 19:39:55*
%MOMM*%
%LPD*%
G01*
G04 APERTURE LIST*
%TA.AperFunction,NonConductor*%
%ADD10C,0.150000*%
%TD*%
%TA.AperFunction,ViaPad*%
%ADD11C,0.800000*%
%TD*%
G04 APERTURE END LIST*
D10*
X177800000Y-140970000D02*
G75*
G03*
X180340000Y-138430000I0J2540000D01*
G01*
X109220000Y-88900000D02*
X177800000Y-88900000D01*
X106680000Y-138430000D02*
G75*
G03*
X109220000Y-140970000I2540000J0D01*
G01*
X109220000Y-88900000D02*
G75*
G03*
X106680000Y-91440000I0J-2540000D01*
G01*
X106680000Y-138430000D02*
X106680000Y-91440000D01*
X109220000Y-140970000D02*
X177800000Y-140970000D01*
X180340000Y-91440000D02*
G75*
G03*
X177800000Y-88900000I-2540000J0D01*
G01*
X180340000Y-91440000D02*
X180340000Y-138430000D01*
D11*
%TO.N,+3V3*%
X135890000Y-63500000D03*
X128270000Y-63500000D03*
X140970000Y-63500000D03*
X138430000Y-63500000D03*
X133350000Y-63500000D03*
X130810000Y-63500000D03*
X143510000Y-63500000D03*
X148590000Y-63500000D03*
X125730000Y-63500000D03*
X128270000Y-83820000D03*
X125730000Y-83820000D03*
X127000000Y-83820000D03*
X129540000Y-83820000D03*
X146050000Y-63500000D03*
%TD*%
%TA.AperFunction,Conductor*%
%TO.N,+3V3*%
G36*
X109162121Y-51328502D02*
G01*
X109208614Y-51382158D01*
X109220000Y-51434500D01*
X109220000Y-82550000D01*
X124460000Y-82550000D01*
X124460000Y-51434500D01*
X124480002Y-51366379D01*
X124533658Y-51319886D01*
X124586000Y-51308500D01*
X168860633Y-51308500D01*
X168880018Y-51310000D01*
X168894852Y-51312310D01*
X168894855Y-51312310D01*
X168903724Y-51313691D01*
X168913659Y-51312392D01*
X168914746Y-51312250D01*
X168943431Y-51311793D01*
X169016741Y-51319013D01*
X169046212Y-51321916D01*
X169070432Y-51326733D01*
X169189546Y-51362866D01*
X169212355Y-51372315D01*
X169322124Y-51430987D01*
X169342655Y-51444705D01*
X169438876Y-51523671D01*
X169456329Y-51541124D01*
X169535295Y-51637345D01*
X169549013Y-51657876D01*
X169607685Y-51767645D01*
X169617134Y-51790454D01*
X169653267Y-51909568D01*
X169658084Y-51933789D01*
X169667541Y-52029809D01*
X169667091Y-52045868D01*
X169667800Y-52045877D01*
X169667690Y-52054853D01*
X169666309Y-52063724D01*
X169667473Y-52072626D01*
X169667473Y-52072628D01*
X169670436Y-52095283D01*
X169671500Y-52111621D01*
X169671500Y-56480633D01*
X169670000Y-56500018D01*
X169667690Y-56514851D01*
X169667690Y-56514855D01*
X169666309Y-56523724D01*
X169667130Y-56530000D01*
X169666957Y-56530000D01*
X169685106Y-56783753D01*
X169686062Y-56788147D01*
X169732461Y-57001439D01*
X169739183Y-57032341D01*
X169740755Y-57036556D01*
X169740756Y-57036559D01*
X169787749Y-57162552D01*
X169828087Y-57270703D01*
X169950009Y-57493986D01*
X169952706Y-57497589D01*
X169952710Y-57497595D01*
X170069897Y-57654138D01*
X170102466Y-57697645D01*
X170282355Y-57877534D01*
X170285958Y-57880231D01*
X170482405Y-58027290D01*
X170482411Y-58027294D01*
X170486014Y-58029991D01*
X170709297Y-58151913D01*
X170713509Y-58153484D01*
X170943441Y-58239244D01*
X170943444Y-58239245D01*
X170947659Y-58240817D01*
X170952050Y-58241772D01*
X170952056Y-58241774D01*
X171137513Y-58282117D01*
X171196247Y-58294894D01*
X171200735Y-58295215D01*
X171416668Y-58310659D01*
X171428577Y-58312083D01*
X171431251Y-58312533D01*
X171432645Y-58312768D01*
X171432647Y-58312768D01*
X171437448Y-58313576D01*
X171443991Y-58313656D01*
X171445140Y-58313670D01*
X171445143Y-58313670D01*
X171450000Y-58313729D01*
X171477624Y-58309773D01*
X171495486Y-58308500D01*
X173936750Y-58308500D01*
X173957655Y-58310246D01*
X173972656Y-58312770D01*
X173972659Y-58312770D01*
X173977448Y-58313576D01*
X173983445Y-58313649D01*
X173985132Y-58313670D01*
X173985136Y-58313670D01*
X173990000Y-58313729D01*
X173994994Y-58313014D01*
X173995149Y-58312992D01*
X174004016Y-58312041D01*
X174239265Y-58295215D01*
X174243753Y-58294894D01*
X174302487Y-58282117D01*
X174487944Y-58241774D01*
X174487950Y-58241772D01*
X174492341Y-58240817D01*
X174496556Y-58239245D01*
X174496559Y-58239244D01*
X174726491Y-58153484D01*
X174730703Y-58151913D01*
X174953986Y-58029991D01*
X174957589Y-58027294D01*
X174957595Y-58027290D01*
X175154042Y-57880231D01*
X175157645Y-57877534D01*
X175337534Y-57697645D01*
X175370103Y-57654138D01*
X175487290Y-57497595D01*
X175487294Y-57497589D01*
X175489991Y-57493986D01*
X175611913Y-57270703D01*
X175652251Y-57162552D01*
X175699244Y-57036559D01*
X175699245Y-57036556D01*
X175700817Y-57032341D01*
X175707540Y-57001439D01*
X175753938Y-56788147D01*
X175754894Y-56783753D01*
X175761692Y-56688703D01*
X175770659Y-56563332D01*
X175772084Y-56551418D01*
X175772768Y-56547355D01*
X175772768Y-56547353D01*
X175773576Y-56542552D01*
X175773729Y-56530000D01*
X175769773Y-56502376D01*
X175768500Y-56484514D01*
X175768500Y-52123250D01*
X175770246Y-52102345D01*
X175772770Y-52087344D01*
X175772770Y-52087341D01*
X175773576Y-52082552D01*
X175773729Y-52070000D01*
X175772788Y-52063429D01*
X175772123Y-52033218D01*
X175781916Y-51933789D01*
X175786733Y-51909568D01*
X175822866Y-51790454D01*
X175832315Y-51767645D01*
X175890987Y-51657876D01*
X175904705Y-51637345D01*
X175983671Y-51541124D01*
X176001124Y-51523671D01*
X176097345Y-51444705D01*
X176117876Y-51430987D01*
X176227645Y-51372315D01*
X176250454Y-51362866D01*
X176369568Y-51326733D01*
X176393789Y-51321916D01*
X176489809Y-51312459D01*
X176505868Y-51312909D01*
X176505877Y-51312200D01*
X176514853Y-51312310D01*
X176523724Y-51313691D01*
X176532626Y-51312527D01*
X176532628Y-51312527D01*
X176549059Y-51310378D01*
X176555286Y-51309564D01*
X176571621Y-51308500D01*
X181560633Y-51308500D01*
X181580018Y-51310000D01*
X181594852Y-51312310D01*
X181594855Y-51312310D01*
X181603724Y-51313691D01*
X181613659Y-51312392D01*
X181614746Y-51312250D01*
X181643431Y-51311793D01*
X181716741Y-51319013D01*
X181746212Y-51321916D01*
X181770432Y-51326733D01*
X181889546Y-51362866D01*
X181912356Y-51372315D01*
X182022122Y-51430986D01*
X182042660Y-51444709D01*
X182117247Y-51505921D01*
X182128284Y-51517596D01*
X182128792Y-51517100D01*
X182135056Y-51523520D01*
X182140354Y-51530771D01*
X182147471Y-51536242D01*
X182147476Y-51536247D01*
X182165600Y-51550179D01*
X182177904Y-51560979D01*
X187193552Y-56576627D01*
X187206198Y-56591394D01*
X187220354Y-56610771D01*
X187227471Y-56616242D01*
X187227473Y-56616244D01*
X187229167Y-56617546D01*
X187249774Y-56637508D01*
X187315291Y-56717341D01*
X187329014Y-56737878D01*
X187387685Y-56847644D01*
X187397134Y-56870454D01*
X187433267Y-56989568D01*
X187438084Y-57013789D01*
X187447541Y-57109809D01*
X187447091Y-57125868D01*
X187447800Y-57125877D01*
X187447690Y-57134853D01*
X187446309Y-57143724D01*
X187447473Y-57152626D01*
X187447473Y-57152628D01*
X187450436Y-57175283D01*
X187451500Y-57191621D01*
X187451500Y-134565957D01*
X187436089Y-134618441D01*
X187450610Y-134652357D01*
X187451500Y-134667306D01*
X187451500Y-137121497D01*
X187437937Y-137167687D01*
X187448621Y-137187252D01*
X187451500Y-137214035D01*
X187451500Y-142190633D01*
X187450000Y-142210018D01*
X187446309Y-142233724D01*
X187447473Y-142242626D01*
X187447750Y-142244746D01*
X187448207Y-142273431D01*
X187447289Y-142282755D01*
X187438084Y-142376212D01*
X187433267Y-142400432D01*
X187397134Y-142519546D01*
X187387685Y-142542355D01*
X187329013Y-142652124D01*
X187315295Y-142672655D01*
X187236329Y-142768876D01*
X187218876Y-142786329D01*
X187122655Y-142865295D01*
X187102124Y-142879013D01*
X186992355Y-142937685D01*
X186969546Y-142947134D01*
X186850432Y-142983267D01*
X186826211Y-142988084D01*
X186730191Y-142997541D01*
X186714132Y-142997091D01*
X186714123Y-142997800D01*
X186705147Y-142997690D01*
X186696276Y-142996309D01*
X186687374Y-142997473D01*
X186687372Y-142997473D01*
X186674856Y-142999110D01*
X186664714Y-143000436D01*
X186648379Y-143001500D01*
X100379367Y-143001500D01*
X100359982Y-143000000D01*
X100345148Y-142997690D01*
X100345145Y-142997690D01*
X100336276Y-142996309D01*
X100326341Y-142997608D01*
X100325254Y-142997750D01*
X100296569Y-142998207D01*
X100223259Y-142990987D01*
X100193788Y-142988084D01*
X100169568Y-142983267D01*
X100050454Y-142947134D01*
X100027645Y-142937685D01*
X99917876Y-142879013D01*
X99897345Y-142865295D01*
X99801124Y-142786329D01*
X99783671Y-142768876D01*
X99704705Y-142672655D01*
X99690987Y-142652124D01*
X99632315Y-142542355D01*
X99622866Y-142519546D01*
X99586733Y-142400432D01*
X99581916Y-142376212D01*
X99572711Y-142282755D01*
X99572607Y-142259151D01*
X99572768Y-142257354D01*
X99573576Y-142252552D01*
X99573729Y-142240000D01*
X99569773Y-142212376D01*
X99568500Y-142194514D01*
X99568500Y-135944038D01*
X99583143Y-135894167D01*
X99583058Y-135893975D01*
X99806035Y-135893975D01*
X99815396Y-135908540D01*
X99820179Y-135935049D01*
X99835106Y-136143753D01*
X99836062Y-136148147D01*
X99882738Y-136362712D01*
X99889183Y-136392341D01*
X99978087Y-136630703D01*
X100100009Y-136853986D01*
X100102706Y-136857589D01*
X100102710Y-136857595D01*
X100219897Y-137014138D01*
X100252466Y-137057645D01*
X100432355Y-137237534D01*
X100435958Y-137240231D01*
X100632405Y-137387290D01*
X100632411Y-137387294D01*
X100636014Y-137389991D01*
X100639971Y-137392152D01*
X100639973Y-137392153D01*
X100748500Y-137451413D01*
X100859297Y-137511913D01*
X100863509Y-137513484D01*
X101093441Y-137599244D01*
X101093444Y-137599245D01*
X101097659Y-137600817D01*
X101102050Y-137601772D01*
X101102056Y-137601774D01*
X101244273Y-137632711D01*
X101346247Y-137654894D01*
X101350735Y-137655215D01*
X101566668Y-137670659D01*
X101578577Y-137672083D01*
X101581251Y-137672533D01*
X101582645Y-137672768D01*
X101582647Y-137672768D01*
X101587448Y-137673576D01*
X101593991Y-137673656D01*
X101595140Y-137673670D01*
X101595143Y-137673670D01*
X101600000Y-137673729D01*
X101627624Y-137669773D01*
X101645486Y-137668500D01*
X104086750Y-137668500D01*
X104107655Y-137670246D01*
X104122656Y-137672770D01*
X104122659Y-137672770D01*
X104127448Y-137673576D01*
X104133445Y-137673649D01*
X104135132Y-137673670D01*
X104135136Y-137673670D01*
X104140000Y-137673729D01*
X104144994Y-137673014D01*
X104145149Y-137672992D01*
X104154016Y-137672041D01*
X104389265Y-137655215D01*
X104393753Y-137654894D01*
X104495727Y-137632711D01*
X104637944Y-137601774D01*
X104637950Y-137601772D01*
X104642341Y-137600817D01*
X104646556Y-137599245D01*
X104646559Y-137599244D01*
X104876491Y-137513484D01*
X104880703Y-137511913D01*
X104991500Y-137451413D01*
X105100027Y-137392153D01*
X105100029Y-137392152D01*
X105103986Y-137389991D01*
X105107589Y-137387294D01*
X105107595Y-137387290D01*
X105304042Y-137240231D01*
X105307645Y-137237534D01*
X105487534Y-137057645D01*
X105520103Y-137014138D01*
X105637290Y-136857595D01*
X105637294Y-136857589D01*
X105639991Y-136853986D01*
X105761913Y-136630703D01*
X105850817Y-136392341D01*
X105851390Y-136392555D01*
X105887988Y-136335607D01*
X105952569Y-136306114D01*
X106022843Y-136316219D01*
X106076498Y-136362712D01*
X106096500Y-136430832D01*
X106096500Y-138383497D01*
X106095422Y-138399944D01*
X106091465Y-138430000D01*
X106092544Y-138438193D01*
X106092544Y-138439776D01*
X106092967Y-138444384D01*
X106109347Y-138756943D01*
X106109860Y-138760183D01*
X106109861Y-138760191D01*
X106127134Y-138869244D01*
X106160563Y-139080303D01*
X106245298Y-139396539D01*
X106362624Y-139702186D01*
X106364122Y-139705126D01*
X106509759Y-139990955D01*
X106509763Y-139990962D01*
X106511257Y-139993894D01*
X106689567Y-140268467D01*
X106895601Y-140522898D01*
X107127102Y-140754399D01*
X107381533Y-140960433D01*
X107384305Y-140962233D01*
X107384308Y-140962235D01*
X107653337Y-141136944D01*
X107656107Y-141138743D01*
X107659041Y-141140238D01*
X107659048Y-141140242D01*
X107944874Y-141285878D01*
X107947814Y-141287376D01*
X108253461Y-141404702D01*
X108569697Y-141489437D01*
X108741326Y-141516621D01*
X108889809Y-141540139D01*
X108889817Y-141540140D01*
X108893057Y-141540653D01*
X109125112Y-141552814D01*
X109205616Y-141557033D01*
X109210224Y-141557456D01*
X109211807Y-141557456D01*
X109220000Y-141558535D01*
X109228188Y-141557457D01*
X109228190Y-141557457D01*
X109250056Y-141554578D01*
X109266503Y-141553500D01*
X177753497Y-141553500D01*
X177769944Y-141554578D01*
X177791810Y-141557457D01*
X177791812Y-141557457D01*
X177800000Y-141558535D01*
X177808193Y-141557456D01*
X177809776Y-141557456D01*
X177814384Y-141557033D01*
X177894888Y-141552814D01*
X178126943Y-141540653D01*
X178130183Y-141540140D01*
X178130191Y-141540139D01*
X178278674Y-141516621D01*
X178450303Y-141489437D01*
X178766539Y-141404702D01*
X179072186Y-141287376D01*
X179075126Y-141285878D01*
X179360955Y-141140241D01*
X179360962Y-141140237D01*
X179363894Y-141138743D01*
X179638467Y-140960433D01*
X179892898Y-140754399D01*
X180124399Y-140522898D01*
X180330433Y-140268467D01*
X180508743Y-139993894D01*
X180510237Y-139990962D01*
X180510241Y-139990955D01*
X180655878Y-139705126D01*
X180657376Y-139702186D01*
X180774702Y-139396539D01*
X180859437Y-139080303D01*
X180892866Y-138869244D01*
X180910139Y-138760191D01*
X180910140Y-138760183D01*
X180910653Y-138756943D01*
X180927033Y-138444384D01*
X180927456Y-138439776D01*
X180927456Y-138438193D01*
X180928535Y-138430000D01*
X180924578Y-138399944D01*
X180923500Y-138383497D01*
X180923500Y-137700832D01*
X180943502Y-137632711D01*
X180997158Y-137586218D01*
X181067432Y-137576114D01*
X181132012Y-137605608D01*
X181168610Y-137662555D01*
X181169183Y-137662341D01*
X181170755Y-137666555D01*
X181170755Y-137666556D01*
X181173173Y-137673038D01*
X181258087Y-137900703D01*
X181380009Y-138123986D01*
X181382706Y-138127589D01*
X181382710Y-138127595D01*
X181499897Y-138284138D01*
X181532466Y-138327645D01*
X181712355Y-138507534D01*
X181715958Y-138510231D01*
X181912405Y-138657290D01*
X181912411Y-138657294D01*
X181916014Y-138659991D01*
X182139297Y-138781913D01*
X182143509Y-138783484D01*
X182373441Y-138869244D01*
X182373444Y-138869245D01*
X182377659Y-138870817D01*
X182382050Y-138871772D01*
X182382056Y-138871774D01*
X182567513Y-138912117D01*
X182626247Y-138924894D01*
X182630735Y-138925215D01*
X182846668Y-138940659D01*
X182858577Y-138942083D01*
X182861251Y-138942533D01*
X182862645Y-138942768D01*
X182862647Y-138942768D01*
X182867448Y-138943576D01*
X182873991Y-138943656D01*
X182875140Y-138943670D01*
X182875143Y-138943670D01*
X182880000Y-138943729D01*
X182907624Y-138939773D01*
X182925486Y-138938500D01*
X185366750Y-138938500D01*
X185387655Y-138940246D01*
X185402656Y-138942770D01*
X185402659Y-138942770D01*
X185407448Y-138943576D01*
X185413445Y-138943649D01*
X185415132Y-138943670D01*
X185415136Y-138943670D01*
X185420000Y-138943729D01*
X185424994Y-138943014D01*
X185425149Y-138942992D01*
X185434016Y-138942041D01*
X185669265Y-138925215D01*
X185673753Y-138924894D01*
X185732487Y-138912117D01*
X185917944Y-138871774D01*
X185917950Y-138871772D01*
X185922341Y-138870817D01*
X185926556Y-138869245D01*
X185926559Y-138869244D01*
X186156491Y-138783484D01*
X186160703Y-138781913D01*
X186383986Y-138659991D01*
X186387589Y-138657294D01*
X186387595Y-138657290D01*
X186584042Y-138510231D01*
X186587645Y-138507534D01*
X186767534Y-138327645D01*
X186800103Y-138284138D01*
X186917290Y-138127595D01*
X186917294Y-138127589D01*
X186919991Y-138123986D01*
X187041913Y-137900703D01*
X187126827Y-137673038D01*
X187129244Y-137666559D01*
X187129245Y-137666556D01*
X187130817Y-137662341D01*
X187132368Y-137655215D01*
X187183938Y-137418147D01*
X187184894Y-137413753D01*
X187186594Y-137389991D01*
X187199821Y-137205046D01*
X187212918Y-137169932D01*
X187204604Y-137156995D01*
X187200775Y-137139373D01*
X187199771Y-137132362D01*
X187198500Y-137114514D01*
X187198500Y-134673250D01*
X187200246Y-134652346D01*
X187201246Y-134646402D01*
X187215128Y-134617831D01*
X187204604Y-134601455D01*
X187199821Y-134574946D01*
X187185215Y-134370735D01*
X187184894Y-134366247D01*
X187148062Y-134196933D01*
X187131774Y-134122056D01*
X187131772Y-134122050D01*
X187130817Y-134117659D01*
X187041913Y-133879297D01*
X186919991Y-133656014D01*
X186917294Y-133652411D01*
X186917290Y-133652405D01*
X186770231Y-133455958D01*
X186767534Y-133452355D01*
X186587645Y-133272466D01*
X186492764Y-133201439D01*
X186387595Y-133122710D01*
X186387589Y-133122706D01*
X186383986Y-133120009D01*
X186348689Y-133100735D01*
X186164653Y-133000244D01*
X186160703Y-132998087D01*
X185961483Y-132923782D01*
X185926559Y-132910756D01*
X185926556Y-132910755D01*
X185922341Y-132909183D01*
X185917950Y-132908228D01*
X185917944Y-132908226D01*
X185732487Y-132867883D01*
X185673753Y-132855106D01*
X185669265Y-132854785D01*
X185453332Y-132839341D01*
X185441423Y-132837917D01*
X185438749Y-132837467D01*
X185437355Y-132837232D01*
X185437353Y-132837232D01*
X185432552Y-132836424D01*
X185426009Y-132836344D01*
X185424860Y-132836330D01*
X185424857Y-132836330D01*
X185420000Y-132836271D01*
X185398563Y-132839341D01*
X185392376Y-132840227D01*
X185374514Y-132841500D01*
X182933250Y-132841500D01*
X182912345Y-132839754D01*
X182897344Y-132837230D01*
X182897341Y-132837230D01*
X182892552Y-132836424D01*
X182886555Y-132836351D01*
X182884868Y-132836330D01*
X182884864Y-132836330D01*
X182880000Y-132836271D01*
X182875006Y-132836986D01*
X182874851Y-132837008D01*
X182865984Y-132837959D01*
X182733358Y-132847445D01*
X182626247Y-132855106D01*
X182567513Y-132867883D01*
X182382056Y-132908226D01*
X182382050Y-132908228D01*
X182377659Y-132909183D01*
X182373444Y-132910755D01*
X182373441Y-132910756D01*
X182338517Y-132923782D01*
X182139297Y-132998087D01*
X182135347Y-133000244D01*
X181951312Y-133100735D01*
X181916014Y-133120009D01*
X181912411Y-133122706D01*
X181912405Y-133122710D01*
X181807236Y-133201439D01*
X181712355Y-133272466D01*
X181532466Y-133452355D01*
X181529769Y-133455958D01*
X181382710Y-133652405D01*
X181382706Y-133652411D01*
X181380009Y-133656014D01*
X181258087Y-133879297D01*
X181169183Y-134117659D01*
X181168610Y-134117445D01*
X181132012Y-134174393D01*
X181067431Y-134203886D01*
X180997157Y-134193781D01*
X180943502Y-134147288D01*
X180923500Y-134079168D01*
X180923500Y-91486503D01*
X180924578Y-91470056D01*
X180927457Y-91448190D01*
X180927457Y-91448188D01*
X180928535Y-91440000D01*
X180927456Y-91431807D01*
X180927456Y-91430224D01*
X180927033Y-91425616D01*
X180910825Y-91116347D01*
X180910653Y-91113057D01*
X180859437Y-90789697D01*
X180774702Y-90473461D01*
X180657376Y-90167814D01*
X180508743Y-89876107D01*
X180330433Y-89601533D01*
X180124399Y-89347102D01*
X179892898Y-89115601D01*
X179638467Y-88909567D01*
X179363894Y-88731257D01*
X179360962Y-88729763D01*
X179360955Y-88729759D01*
X179075126Y-88584122D01*
X179072186Y-88582624D01*
X178766539Y-88465298D01*
X178450303Y-88380563D01*
X178278674Y-88353379D01*
X178130191Y-88329861D01*
X178130183Y-88329860D01*
X178126943Y-88329347D01*
X177881798Y-88316500D01*
X177814384Y-88312967D01*
X177809776Y-88312544D01*
X177808193Y-88312544D01*
X177800000Y-88311465D01*
X177791812Y-88312543D01*
X177791810Y-88312543D01*
X177769944Y-88315422D01*
X177753497Y-88316500D01*
X109266503Y-88316500D01*
X109250056Y-88315422D01*
X109228190Y-88312543D01*
X109228188Y-88312543D01*
X109220000Y-88311465D01*
X109211807Y-88312544D01*
X109210224Y-88312544D01*
X109205616Y-88312967D01*
X109138202Y-88316500D01*
X108893057Y-88329347D01*
X108889817Y-88329860D01*
X108889809Y-88329861D01*
X108741326Y-88353379D01*
X108569697Y-88380563D01*
X108253461Y-88465298D01*
X107947814Y-88582624D01*
X107944874Y-88584122D01*
X107659048Y-88729758D01*
X107659041Y-88729762D01*
X107656107Y-88731257D01*
X107653341Y-88733053D01*
X107653338Y-88733055D01*
X107473416Y-88849897D01*
X107381533Y-88909567D01*
X107127102Y-89115601D01*
X106895601Y-89347102D01*
X106689567Y-89601533D01*
X106511257Y-89876107D01*
X106362624Y-90167814D01*
X106245298Y-90473461D01*
X106160563Y-90789697D01*
X106109347Y-91113057D01*
X106109175Y-91116347D01*
X106092967Y-91425616D01*
X106092544Y-91430224D01*
X106092544Y-91431807D01*
X106091465Y-91440000D01*
X106092543Y-91448188D01*
X106092543Y-91448190D01*
X106095422Y-91470056D01*
X106096500Y-91486503D01*
X106096500Y-132809168D01*
X106076498Y-132877289D01*
X106022842Y-132923782D01*
X105952568Y-132933886D01*
X105887988Y-132904392D01*
X105851390Y-132847445D01*
X105850817Y-132847659D01*
X105849835Y-132845027D01*
X105847081Y-132837641D01*
X105763484Y-132613509D01*
X105761913Y-132609297D01*
X105639991Y-132386014D01*
X105637294Y-132382411D01*
X105637290Y-132382405D01*
X105490231Y-132185958D01*
X105487534Y-132182355D01*
X105307645Y-132002466D01*
X105264138Y-131969897D01*
X105107595Y-131852710D01*
X105107589Y-131852706D01*
X105103986Y-131850009D01*
X104880703Y-131728087D01*
X104876491Y-131726516D01*
X104646559Y-131640756D01*
X104646556Y-131640755D01*
X104642341Y-131639183D01*
X104637950Y-131638228D01*
X104637944Y-131638226D01*
X104452487Y-131597883D01*
X104393753Y-131585106D01*
X104389265Y-131584785D01*
X104173332Y-131569341D01*
X104161423Y-131567917D01*
X104158749Y-131567467D01*
X104157355Y-131567232D01*
X104157353Y-131567232D01*
X104152552Y-131566424D01*
X104146009Y-131566344D01*
X104144860Y-131566330D01*
X104144857Y-131566330D01*
X104140000Y-131566271D01*
X104118563Y-131569341D01*
X104112376Y-131570227D01*
X104094514Y-131571500D01*
X101653250Y-131571500D01*
X101632345Y-131569754D01*
X101617344Y-131567230D01*
X101617341Y-131567230D01*
X101612552Y-131566424D01*
X101606555Y-131566351D01*
X101604868Y-131566330D01*
X101604864Y-131566330D01*
X101600000Y-131566271D01*
X101595006Y-131566986D01*
X101594851Y-131567008D01*
X101585984Y-131567959D01*
X101350735Y-131584785D01*
X101346247Y-131585106D01*
X101287513Y-131597883D01*
X101102056Y-131638226D01*
X101102050Y-131638228D01*
X101097659Y-131639183D01*
X101093444Y-131640755D01*
X101093441Y-131640756D01*
X100863509Y-131726516D01*
X100859297Y-131728087D01*
X100636014Y-131850009D01*
X100632411Y-131852706D01*
X100632405Y-131852710D01*
X100475862Y-131969897D01*
X100432355Y-132002466D01*
X100252466Y-132182355D01*
X100249769Y-132185958D01*
X100102710Y-132382405D01*
X100102706Y-132382411D01*
X100100009Y-132386014D01*
X99978087Y-132609297D01*
X99976516Y-132613509D01*
X99892920Y-132837641D01*
X99889183Y-132847659D01*
X99888228Y-132852050D01*
X99888226Y-132852056D01*
X99887563Y-132855106D01*
X99835106Y-133096247D01*
X99834785Y-133100735D01*
X99820179Y-133304954D01*
X99808151Y-133337201D01*
X99815396Y-133348474D01*
X99819435Y-133367625D01*
X99820438Y-133375297D01*
X99821500Y-133391620D01*
X99821500Y-135840633D01*
X99820000Y-135860016D01*
X99819000Y-135866439D01*
X99806035Y-135893975D01*
X99583058Y-135893975D01*
X99569582Y-135863533D01*
X99568500Y-135847056D01*
X99568500Y-133383972D01*
X99581197Y-133340728D01*
X99571379Y-133322748D01*
X99568500Y-133295965D01*
X99568500Y-52123250D01*
X99570246Y-52102345D01*
X99572770Y-52087344D01*
X99572770Y-52087341D01*
X99573576Y-52082552D01*
X99573729Y-52070000D01*
X99572788Y-52063429D01*
X99572123Y-52033218D01*
X99581916Y-51933789D01*
X99586733Y-51909568D01*
X99622866Y-51790454D01*
X99632315Y-51767645D01*
X99690987Y-51657876D01*
X99704705Y-51637345D01*
X99783671Y-51541124D01*
X99801124Y-51523671D01*
X99897345Y-51444705D01*
X99917876Y-51430987D01*
X100027645Y-51372315D01*
X100050454Y-51362866D01*
X100169568Y-51326733D01*
X100193789Y-51321916D01*
X100289809Y-51312459D01*
X100305868Y-51312909D01*
X100305877Y-51312200D01*
X100314853Y-51312310D01*
X100323724Y-51313691D01*
X100332626Y-51312527D01*
X100332628Y-51312527D01*
X100349059Y-51310378D01*
X100355286Y-51309564D01*
X100371621Y-51308500D01*
X109094000Y-51308500D01*
X109162121Y-51328502D01*
G37*
%TD.AperFunction*%
%TD*%
M02*
