%TF.GenerationSoftware,KiCad,Pcbnew,(6.0.5)*%
%TF.CreationDate,2022-10-23T19:39:55-05:00*%
%TF.ProjectId,floppy-console,666c6f70-7079-42d6-936f-6e736f6c652e,rev?*%
%TF.SameCoordinates,Original*%
%TF.FileFunction,Legend,Top*%
%TF.FilePolarity,Positive*%
%FSLAX46Y46*%
G04 Gerber Fmt 4.6, Leading zero omitted, Abs format (unit mm)*
G04 Created by KiCad (PCBNEW (6.0.5)) date 2022-10-23 19:39:55*
%MOMM*%
%LPD*%
G01*
G04 APERTURE LIST*
%ADD10C,0.150000*%
%ADD11C,0.000000*%
G04 APERTURE END LIST*
D10*
X175260000Y-99060000D02*
X175260000Y-133350000D01*
X114300000Y-92710000D02*
G75*
G03*
X107950000Y-99060000I0J-6350000D01*
G01*
X168910000Y-139700000D02*
G75*
G03*
X175260000Y-133350000I0J6350000D01*
G01*
X175260000Y-99060000D02*
G75*
G03*
X168910000Y-92710000I-6350000J0D01*
G01*
X114300000Y-92710000D02*
X168910000Y-92710000D01*
X107950000Y-133350000D02*
X107950000Y-99060000D01*
X114300000Y-139700000D02*
X168910000Y-139700000D01*
X107950000Y-133350000D02*
G75*
G03*
X114300000Y-139700000I6350000J0D01*
G01*
%TO.C,*%
%TO.C,U1*%
X118618095Y-48982380D02*
X118618095Y-49791904D01*
X118665714Y-49887142D01*
X118713333Y-49934761D01*
X118808571Y-49982380D01*
X118999047Y-49982380D01*
X119094285Y-49934761D01*
X119141904Y-49887142D01*
X119189523Y-49791904D01*
X119189523Y-48982380D01*
X120189523Y-49982380D02*
X119618095Y-49982380D01*
X119903809Y-49982380D02*
X119903809Y-48982380D01*
X119808571Y-49125238D01*
X119713333Y-49220476D01*
X119618095Y-49268095D01*
%TO.C,*%
%TD*%
G36*
X168910610Y-92710006D02*
G01*
X169155059Y-92712405D01*
X169163709Y-92712787D01*
X169651716Y-92751195D01*
X169661541Y-92752358D01*
X170144411Y-92828837D01*
X170154114Y-92830767D01*
X170629504Y-92944898D01*
X170639026Y-92947584D01*
X171103979Y-93098656D01*
X171113261Y-93102080D01*
X171564940Y-93289171D01*
X171573925Y-93293313D01*
X172009530Y-93515265D01*
X172018162Y-93520099D01*
X172435016Y-93775547D01*
X172443242Y-93781044D01*
X172838761Y-94068407D01*
X172846530Y-94074532D01*
X173218285Y-94392040D01*
X173225550Y-94398756D01*
X173571244Y-94744450D01*
X173577960Y-94751715D01*
X173895468Y-95123470D01*
X173901593Y-95131239D01*
X174188956Y-95526758D01*
X174194453Y-95534984D01*
X174449901Y-95951838D01*
X174454735Y-95960470D01*
X174676687Y-96396075D01*
X174680829Y-96405060D01*
X174867920Y-96856739D01*
X174871344Y-96866021D01*
X175022416Y-97330974D01*
X175025102Y-97340496D01*
X175139233Y-97815886D01*
X175141163Y-97825589D01*
X175217642Y-98308459D01*
X175218805Y-98318284D01*
X175257213Y-98806291D01*
X175257595Y-98814941D01*
X175259994Y-99059390D01*
X175260000Y-99060626D01*
X175260000Y-133349374D01*
X175259994Y-133350610D01*
X175257595Y-133595059D01*
X175257213Y-133603709D01*
X175218805Y-134091716D01*
X175217642Y-134101541D01*
X175141163Y-134584411D01*
X175139233Y-134594114D01*
X175025102Y-135069504D01*
X175022416Y-135079026D01*
X174871344Y-135543979D01*
X174867920Y-135553261D01*
X174680829Y-136004940D01*
X174676687Y-136013925D01*
X174454735Y-136449530D01*
X174449901Y-136458162D01*
X174194453Y-136875016D01*
X174188956Y-136883242D01*
X173901593Y-137278761D01*
X173895468Y-137286530D01*
X173577960Y-137658285D01*
X173571244Y-137665550D01*
X173225550Y-138011244D01*
X173218285Y-138017960D01*
X172846530Y-138335468D01*
X172838761Y-138341593D01*
X172443242Y-138628956D01*
X172435016Y-138634453D01*
X172018162Y-138889901D01*
X172009530Y-138894735D01*
X171573925Y-139116687D01*
X171564940Y-139120829D01*
X171113261Y-139307920D01*
X171103979Y-139311344D01*
X170639026Y-139462416D01*
X170629504Y-139465102D01*
X170154114Y-139579233D01*
X170144411Y-139581163D01*
X169661541Y-139657642D01*
X169651716Y-139658805D01*
X169163709Y-139697213D01*
X169155059Y-139697595D01*
X168910610Y-139699994D01*
X168909374Y-139700000D01*
X114300626Y-139700000D01*
X114299390Y-139699994D01*
X114054941Y-139697595D01*
X114046291Y-139697213D01*
X113558284Y-139658805D01*
X113548459Y-139657642D01*
X113065589Y-139581163D01*
X113055886Y-139579233D01*
X112580496Y-139465102D01*
X112570974Y-139462416D01*
X112106021Y-139311344D01*
X112096739Y-139307920D01*
X111645060Y-139120829D01*
X111636075Y-139116687D01*
X111200470Y-138894735D01*
X111191838Y-138889901D01*
X110774984Y-138634453D01*
X110766758Y-138628956D01*
X110371239Y-138341593D01*
X110363470Y-138335468D01*
X109991715Y-138017960D01*
X109984450Y-138011244D01*
X109638756Y-137665550D01*
X109632040Y-137658285D01*
X109314532Y-137286530D01*
X109308407Y-137278761D01*
X109021044Y-136883242D01*
X109015547Y-136875016D01*
X108760099Y-136458162D01*
X108755265Y-136449530D01*
X108533313Y-136013925D01*
X108529171Y-136004940D01*
X108342080Y-135553261D01*
X108338656Y-135543979D01*
X108187584Y-135079026D01*
X108184898Y-135069504D01*
X108070767Y-134594114D01*
X108068837Y-134584411D01*
X107992358Y-134101541D01*
X107991195Y-134091716D01*
X107952787Y-133603709D01*
X107952405Y-133595059D01*
X107950006Y-133350610D01*
X107950000Y-133349374D01*
X107950000Y-99060626D01*
X107950006Y-99059390D01*
X107952405Y-98814941D01*
X107952787Y-98806291D01*
X107991195Y-98318284D01*
X107992358Y-98308459D01*
X108068837Y-97825589D01*
X108070767Y-97815886D01*
X108184898Y-97340496D01*
X108187584Y-97330974D01*
X108338656Y-96866021D01*
X108342080Y-96856739D01*
X108529171Y-96405060D01*
X108533313Y-96396075D01*
X108755265Y-95960470D01*
X108760099Y-95951838D01*
X109015547Y-95534984D01*
X109021044Y-95526758D01*
X109308407Y-95131239D01*
X109314532Y-95123470D01*
X109632040Y-94751715D01*
X109638756Y-94744450D01*
X109984450Y-94398756D01*
X109991715Y-94392040D01*
X110363470Y-94074532D01*
X110371239Y-94068407D01*
X110766758Y-93781044D01*
X110774984Y-93775547D01*
X111191838Y-93520099D01*
X111200470Y-93515265D01*
X111636075Y-93293313D01*
X111645060Y-93289171D01*
X112096739Y-93102080D01*
X112106021Y-93098656D01*
X112570974Y-92947584D01*
X112580496Y-92944898D01*
X113055886Y-92830767D01*
X113065589Y-92828837D01*
X113548459Y-92752358D01*
X113558284Y-92751195D01*
X114046291Y-92712787D01*
X114054941Y-92712405D01*
X114299390Y-92710006D01*
X114300626Y-92710000D01*
X168909374Y-92710000D01*
X168910610Y-92710006D01*
G37*
%LPC*%
G36*
X105664000Y-63246000D02*
G01*
X104648000Y-63246000D01*
X104648000Y-67310000D01*
X103632000Y-67310000D01*
X103632000Y-63246000D01*
X102616000Y-63246000D01*
X104140000Y-59690000D01*
X105664000Y-63246000D01*
G37*
X105664000Y-63246000D02*
X104648000Y-63246000D01*
X104648000Y-67310000D01*
X103632000Y-67310000D01*
X103632000Y-63246000D01*
X102616000Y-63246000D01*
X104140000Y-59690000D01*
X105664000Y-63246000D01*
G36*
X151130000Y-50800000D02*
G01*
X124460000Y-50800000D01*
X124460000Y-82550000D01*
X151130000Y-82550000D01*
X151130000Y-50800000D01*
G37*
D11*
G36*
X168910000Y-82550000D02*
G01*
X151130000Y-82550000D01*
X151130000Y-80010000D01*
X162560000Y-80010000D01*
X162560000Y-55880000D01*
X151130000Y-55880000D01*
X151130000Y-50800000D01*
X168910000Y-50800000D01*
X168910000Y-82550000D01*
G37*
M02*
