%TF.GenerationSoftware,KiCad,Pcbnew,(6.0.5)*%
%TF.CreationDate,2022-10-23T19:39:55-05:00*%
%TF.ProjectId,floppy-console,666c6f70-7079-42d6-936f-6e736f6c652e,rev?*%
%TF.SameCoordinates,Original*%
%TF.FileFunction,Profile,NP*%
%FSLAX46Y46*%
G04 Gerber Fmt 4.6, Leading zero omitted, Abs format (unit mm)*
G04 Created by KiCad (PCBNEW (6.0.5)) date 2022-10-23 19:39:55*
%MOMM*%
%LPD*%
G01*
G04 APERTURE LIST*
%TA.AperFunction,Profile*%
%ADD10C,0.100000*%
%TD*%
%TA.AperFunction,Profile*%
%ADD11C,0.120000*%
%TD*%
G04 APERTURE END LIST*
D10*
X185420000Y-138430000D02*
G75*
G03*
X186690000Y-137160000I0J1270000D01*
G01*
X111760000Y-52070000D02*
X111760000Y-56530000D01*
X101600000Y-132080000D02*
G75*
G03*
X100330000Y-133350000I0J-1270000D01*
G01*
X187960000Y-142240000D02*
X187960000Y-57150000D01*
X185420000Y-133350000D02*
X182880000Y-133350000D01*
X186690000Y-134620000D02*
G75*
G03*
X185420000Y-133350000I-1270000J0D01*
G01*
X181610000Y-50800000D02*
X176530000Y-50800000D01*
X99060000Y-142240000D02*
G75*
G03*
X100330000Y-143510000I1270000J0D01*
G01*
X100330000Y-143510000D02*
X186690000Y-143510000D01*
X181610000Y-137160000D02*
G75*
G03*
X182880000Y-138430000I1270000J0D01*
G01*
X104140000Y-132080000D02*
X101600000Y-132080000D01*
X182508026Y-51171974D02*
G75*
G03*
X181610000Y-50800000I-898026J-898026D01*
G01*
X105410000Y-135890000D02*
X105410000Y-133350000D01*
X100330000Y-135890000D02*
G75*
G03*
X101600000Y-137160000I1270000J0D01*
G01*
X182508026Y-51171974D02*
X187588026Y-56251974D01*
X182880000Y-138430000D02*
X185420000Y-138430000D01*
X187960001Y-57150000D02*
G75*
G03*
X187588026Y-56251974I-1270001J0D01*
G01*
X181610000Y-134620000D02*
X181610000Y-137160000D01*
X182880000Y-133350000D02*
G75*
G03*
X181610000Y-134620000I0J-1270000D01*
G01*
X100330000Y-50800000D02*
X110490000Y-50800000D01*
X175260000Y-56530000D02*
X175260000Y-52070000D01*
X182880000Y-50800000D02*
X182880000Y-50800000D01*
X186690000Y-143510000D02*
G75*
G03*
X187960000Y-142240000I0J1270000D01*
G01*
X186690000Y-137160000D02*
X186690000Y-134620000D01*
X105410000Y-133350000D02*
G75*
G03*
X104140000Y-132080000I-1270000J0D01*
G01*
X104140000Y-137160000D02*
G75*
G03*
X105410000Y-135890000I0J1270000D01*
G01*
X99060000Y-52070000D02*
X99060000Y-142240000D01*
X101600000Y-137160000D02*
X104140000Y-137160000D01*
X176530000Y-50800000D02*
G75*
G03*
X175260000Y-52070000I0J-1270000D01*
G01*
X100330000Y-133350000D02*
X100330000Y-135890000D01*
X100330000Y-50800000D02*
G75*
G03*
X99060000Y-52070000I0J-1270000D01*
G01*
X111760000Y-52070000D02*
G75*
G03*
X110490000Y-50800000I-1270000J0D01*
G01*
D11*
%TO.C,U1*%
X171450000Y-57800000D02*
X173990000Y-57800000D01*
X113030000Y-57800000D02*
X115570000Y-57800000D01*
X168910000Y-50800000D02*
X118110000Y-50800000D01*
X170180000Y-56530000D02*
X170180000Y-52070000D01*
X116840000Y-52070000D02*
X116840000Y-56530000D01*
X170180000Y-52070000D02*
G75*
G03*
X168910000Y-50800000I-1270000J0D01*
G01*
X115570000Y-57800000D02*
G75*
G03*
X116840000Y-56530000I0J1270000D01*
G01*
X170180000Y-56530000D02*
G75*
G03*
X171450000Y-57800000I1270000J0D01*
G01*
X118110000Y-50800000D02*
G75*
G03*
X116840000Y-52070000I0J-1270000D01*
G01*
X173990000Y-57800000D02*
G75*
G03*
X175260000Y-56530000I0J1270000D01*
G01*
X111760000Y-56530000D02*
G75*
G03*
X113030000Y-57800000I1270000J0D01*
G01*
%TD*%
M02*
